STARTFONT 2.1
FONT -WRI-Mathematica2-Medium-R-Normal--28-280-75-75-p-160-Adobe-FontSpecific
SIZE 28 75 75
FONTBOUNDINGBOX 70 182 0 -114
STARTPROPERTIES 16
FOUNDRY "WRI"
FAMILY_NAME "Mathematica2"
WEIGHT_NAME "Medium"
SLANT "R"
SETWIDTH_NAME "Normal"
PIXEL_SIZE 28
POINT_SIZE 280
RESOLUTION_X 75
RESOLUTION_Y 75
SPACING "p"
AVERAGE_WIDTH 160
CHARSET_REGISTRY "Adobe"
CHARSET_ENCODING "FontSpecific"
FONT_DESCENT 114
FONT_ASCENT 68
DEFAULT_CHAR 32
ENDPROPERTIES
CHARS 223
STARTCHAR Space
ENCODING 32
SWIDTH 189 0
DWIDTH 5 0
BBX 0 0 0 0
BITMAP
ENDCHAR
STARTCHAR Radical1Extens
ENCODING 33
SWIDTH 230 0
DWIDTH 6 0
BBX 6 1 0 8
BITMAP
fc
ENDCHAR
STARTCHAR Radical2
ENCODING 34
SWIDTH 924 0
DWIDTH 26 0
BBX 24 46 2 -25
BITMAP
00000f
00000c
00000c
000008
000008
000018
000018
000018
000010
000010
000030
000030
000030
000020
000020
000060
000060
000060
000040
0000c0
0000c0
0000c0
0000c0
000080
0c0180
3e0180
fe0180
8f0180
0f0100
078300
078300
03c300
03c300
01c600
01e600
00e600
00f600
007400
007c00
003c00
003c00
001c00
001800
000800
000800
000400
ENDCHAR
STARTCHAR Radical2Extens
ENCODING 35
SWIDTH 230 0
DWIDTH 6 0
BBX 6 1 0 19
BITMAP
fc
ENDCHAR
STARTCHAR Radical3
ENCODING 36
SWIDTH 1051 0
DWIDTH 29 0
BBX 27 80 2 -32
BITMAP
000001e0
00000180
00000180
00000180
00000100
00000100
00000100
00000300
00000300
00000300
00000300
00000200
00000200
00000200
00000600
00000600
00000600
00000600
00000400
00000400
00000400
00000c00
00000c00
00000c00
00000c00
00000800
00000800
00000800
00001800
00001800
00001800
00001800
00001000
00001000
00003000
00003000
00003000
00003000
00002000
00002000
00002000
00006000
00006000
00006000
00006000
00004000
00004000
00004000
0000c000
0000c000
0200c000
0c00c000
3e008000
ce008000
0f008000
0f018000
07018000
07818000
03818000
03810000
03c10000
01c10000
01c30000
01e30000
00e30000
00f30000
00720000
00720000
007e0000
003e0000
003e0000
003e0000
001e0000
001c0000
001c0000
000c0000
000c0000
00040000
00040000
00040000
ENDCHAR
STARTCHAR Radical3Extens
ENCODING 37
SWIDTH 230 0
DWIDTH 6 0
BBX 6 1 0 47
BITMAP
fc
ENDCHAR
STARTCHAR Radical4
ENCODING 38
SWIDTH 1070 0
DWIDTH 30 0
BBX 28 110 2 -42
BITMAP
000003f0
00000300
00000300
00000300
00000300
00000300
00000300
00000200
00000200
00000200
00000200
00000600
00000600
00000600
00000600
00000600
00000600
00000600
00000600
00000400
00000400
00000400
00000c00
00000c00
00000c00
00000c00
00000c00
00000c00
00000c00
00000c00
00000c00
00000800
00000800
00000800
00001800
00001800
00001800
00001800
00001800
00001800
00001800
00001800
00001800
00001000
00001000
00001000
00003000
00003000
00003000
00003000
00003000
00003000
00003000
00003000
00003000
00002000
00002000
00006000
00006000
00006000
00006000
00006000
00006000
00006000
00006000
00006000
00006000
00006000
00004000
0000c000
0000c000
0400c000
1e00c000
7e00c000
8e00c000
0e00c000
0f00c000
0700c000
0700c000
0780c000
03818000
03818000
03818000
01c18000
01c18000
01c18000
00e18000
00e18000
00e18000
00f18000
00718000
00718000
00730000
003b0000
003b0000
003b0000
001f0000
001f0000
001f0000
000f0000
000f0000
000f0000
00070000
00070000
00060000
00020000
00020000
00020000
00010000
00010000
ENDCHAR
STARTCHAR Radical4Extens
ENCODING 39
SWIDTH 230 0
DWIDTH 6 0
BBX 6 1 0 66
BITMAP
fc
ENDCHAR
STARTCHAR Radical5
ENCODING 40
SWIDTH 939 0
DWIDTH 26 0
BBX 19 115 2 -47
BITMAP
000040
000040
000040
000040
000040
000040
000040
000040
000040
000040
000040
000040
000040
000040
000040
000040
000040
000040
000040
000040
000040
000040
000040
000040
000040
000040
000040
000040
000040
000040
000040
000040
000040
000040
000040
000040
000040
000040
000040
000040
000040
000040
000040
000040
000040
000040
000040
000040
000040
000040
000040
000040
000040
000040
000040
000040
000040
000040
000040
000040
000040
000040
000040
000040
000040
000040
000040
000040
000040
000040
010040
060040
1f0040
6f0040
8f0040
078040
078040
078040
03c040
03c040
03c040
01e040
01e040
01e040
00f040
00f040
00f840
007840
007840
007c40
003c40
003c40
003e40
001e40
001e40
001f40
000f40
000f40
000fc0
0007c0
0007c0
0007c0
0003c0
0003c0
0003c0
0001c0
0001c0
0001c0
0000c0
0000c0
0000c0
000040
000040
000040
000020
ENDCHAR
STARTCHAR Radical5VertExtens
ENCODING 41
SWIDTH 939 0
DWIDTH 26 0
BBX 1 9 18 0
BITMAP
80
80
80
80
80
80
80
80
80
ENDCHAR
STARTCHAR Radical5Top
ENCODING 42
SWIDTH 939 0
DWIDTH 26 0
BBX 8 8 18 0
BITMAP
ff
80
80
80
80
80
80
80
ENDCHAR
STARTCHAR Radical5Extens
ENCODING 43
SWIDTH 230 0
DWIDTH 6 0
BBX 6 1 0 7
BITMAP
fc
ENDCHAR
STARTCHAR FixedFreeRadical1
ENCODING 44
SWIDTH 805 0
DWIDTH 23 0
BBX 19 31 2 -21
BITMAP
000060
000060
000060
000040
0000c0
0000c0
000080
000180
000180
000180
000100
000300
000300
080200
3c0600
fc0600
0e0600
0e0400
070c00
070c00
078800
039800
039800
01d800
01d000
00f000
00f000
006000
006000
002000
002000
ENDCHAR
STARTCHAR FixedFreeRadical2
ENCODING 45
SWIDTH 924 0
DWIDTH 26 0
BBX 22 46 2 -25
BITMAP
00000c
00000c
00000c
000008
000008
000018
000018
000018
000010
000010
000030
000030
000030
000020
000020
000060
000060
000060
000040
0000c0
0000c0
0000c0
0000c0
000080
040180
1e0180
7e0180
8f0180
0f0100
070300
078300
038300
03c300
01c600
01e600
00e600
00f600
007400
007c00
003c00
003c00
001c00
001800
000800
000800
000400
ENDCHAR
STARTCHAR FixedFreeRadical3
ENCODING 46
SWIDTH 1051 0
DWIDTH 29 0
BBX 25 80 2 -32
BITMAP
00000080
00000180
00000180
00000180
00000180
00000100
00000100
00000100
00000300
00000300
00000300
00000300
00000200
00000200
00000600
00000600
00000600
00000600
00000600
00000400
00000400
00000c00
00000c00
00000c00
00000c00
00000800
00000800
00000800
00001800
00001800
00001800
00001800
00001000
00001000
00001000
00003000
00003000
00003000
00003000
00002000
00002000
00006000
00006000
00006000
00006000
00006000
00004000
00004000
0000c000
0000c000
0200c000
0e00c000
3e00c000
ce008000
0f008000
07018000
07018000
07818000
03818000
03810000
03c10000
01c10000
01c30000
01e30000
00e30000
00f30000
00720000
00720000
007e0000
003e0000
003e0000
003e0000
001e0000
001c0000
001c0000
000c0000
000c0000
00040000
00040000
00040000
ENDCHAR
STARTCHAR FixedFreeRadical4
ENCODING 47
SWIDTH 1070 0
DWIDTH 30 0
BBX 24 110 2 -42
BITMAP
000003
000003
000003
000003
000003
000003
000003
000003
000002
000002
000002
000006
000006
000006
000006
000006
000006
000006
000006
000006
000004
000004
000004
00000c
00000c
00000c
00000c
00000c
00000c
00000c
00000c
00000c
000008
000008
000018
000018
000018
000018
000018
000018
000018
000018
000018
000018
000010
000010
000030
000030
000030
000030
000030
000030
000030
000030
000030
000030
000020
000060
000060
000060
000060
000060
000060
000060
000060
000060
000060
000060
000040
0000c0
0000c0
0400c0
1e00c0
7e00c0
8e00c0
0e00c0
0f00c0
0700c0
0700c0
0780c0
038080
038180
038180
01c180
01c180
01c180
00e180
00e180
00e180
00f180
007180
007180
007300
003b00
003b00
003b00
001f00
001f00
001f00
000f00
000f00
000f00
000700
000700
000600
000200
000200
000200
000100
000100
ENDCHAR
STARTCHAR TexRad1
ENCODING 48
SWIDTH 805 0
DWIDTH 23 0
BBX 20 31 2 -29
BITMAP
000070
000040
000040
0000c0
0000c0
000080
000080
000180
000180
000100
000300
000300
000200
180200
3c0600
dc0600
0e0400
0e0c00
070c00
070800
038800
039800
039800
01d000
01f000
00f000
00f000
006000
006000
002000
002000
ENDCHAR
STARTCHAR TexRad2
ENCODING 49
SWIDTH 924 0
DWIDTH 26 0
BBX 24 46 2 -44
BITMAP
00000f
00000c
00000c
000008
000008
000018
000018
000018
000010
000010
000030
000030
000030
000020
000020
000060
000060
000060
000040
0000c0
0000c0
0000c0
0000c0
000080
0c0180
3e0180
fe0180
8f0180
0f0100
078300
078300
03c300
03c300
01c600
01e600
00e600
00f600
007400
007c00
003c00
003c00
001c00
001800
000800
000800
000400
ENDCHAR
STARTCHAR TexRad3
ENCODING 50
SWIDTH 1051 0
DWIDTH 29 0
BBX 27 81 2 -79
BITMAP
000001e0
00000180
00000180
00000180
00000100
00000100
00000100
00000300
00000300
00000300
00000300
00000200
00000200
00000200
00000600
00000600
00000600
00000600
00000400
00000400
00000400
00000c00
00000c00
00000c00
00000c00
00000800
00000800
00000800
00001800
00001800
00001800
00001800
00001000
00001000
00001000
00003000
00003000
00003000
00003000
00002000
00002000
00002000
00006000
00006000
00006000
00006000
00004000
00004000
00004000
0000c000
0000c000
0400c000
1e00c000
7e008000
8e008000
0f018000
07018000
07018000
07818000
03818000
03810000
03c10000
01c30000
01e30000
00e30000
00e30000
00f30000
00720000
00720000
007e0000
003e0000
003e0000
003e0000
001e0000
001c0000
001c0000
000c0000
000c0000
00040000
00040000
00040000
ENDCHAR
STARTCHAR TexRad4
ENCODING 51
SWIDTH 1070 0
DWIDTH 30 0
BBX 28 110 2 -108
BITMAP
000003f0
00000300
00000300
00000300
00000300
00000300
00000300
00000200
00000200
00000200
00000200
00000600
00000600
00000600
00000600
00000600
00000600
00000600
00000600
00000400
00000400
00000400
00000c00
00000c00
00000c00
00000c00
00000c00
00000c00
00000c00
00000c00
00000c00
00000800
00000800
00000800
00001800
00001800
00001800
00001800
00001800
00001800
00001800
00001800
00001800
00001000
00001000
00001000
00003000
00003000
00003000
00003000
00003000
00003000
00003000
00003000
00003000
00002000
00002000
00006000
00006000
00006000
00006000
00006000
00006000
00006000
00006000
00006000
00006000
00006000
00004000
0000c000
0200c000
0c00c000
3e00c000
de00c000
0e00c000
0e00c000
0f00c000
0700c000
0700c000
0780c000
03818000
03818000
03c18000
01c18000
01c18000
01c18000
00e18000
00e18000
00e18000
00718000
00718000
00718000
00730000
003b0000
003b0000
003b0000
001f0000
001f0000
001f0000
000f0000
000f0000
000f0000
00070000
00070000
00060000
00020000
00020000
00020000
00010000
00010000
ENDCHAR
STARTCHAR TexRad5
ENCODING 52
SWIDTH 939 0
DWIDTH 26 0
BBX 19 116 2 -114
BITMAP
000040
000040
000040
000040
000040
000040
000040
000040
000040
000040
000040
000040
000040
000040
000040
000040
000040
000040
000040
000040
000040
000040
000040
000040
000040
000040
000040
000040
000040
000040
000040
000040
000040
000040
000040
000040
000040
000040
000040
000040
000040
000040
000040
000040
000040
000040
000040
000040
000040
000040
000040
000040
000040
000040
000040
000040
000040
000040
000040
000040
000040
000040
000040
000040
000040
000040
000040
000040
000040
000040
000040
020040
0e0040
3f0040
ef0040
0f0040
078040
078040
078040
03c040
03c040
03e040
01e040
01e040
01f040
00f040
00f040
00f840
007840
007840
007c40
003c40
003c40
003e40
001e40
001e40
001f40
000f40
000f40
000fc0
0007c0
0007c0
0007c0
0003c0
0003c0
0003c0
0001c0
0001c0
0001c0
0000c0
0000c0
0000c0
000040
000040
000040
000020
ENDCHAR
STARTCHAR TexRad5VertExt
ENCODING 53
SWIDTH 939 0
DWIDTH 26 0
BBX 1 9 18 -7
BITMAP
80
80
80
80
80
80
80
80
80
ENDCHAR
STARTCHAR TexRad5Top
ENCODING 54
SWIDTH 939 0
DWIDTH 26 0
BBX 8 9 18 -7
BITMAP
ff
80
80
80
80
80
80
80
80
ENDCHAR
STARTCHAR TexRadExtens
ENCODING 55
SWIDTH 230 0
DWIDTH 6 0
BBX 6 1 0 0
BITMAP
fc
ENDCHAR
STARTCHAR LBrace1
ENCODING 56
SWIDTH 328 0
DWIDTH 9 0
BBX 5 24 2 -5
BITMAP
18
20
60
60
60
60
60
60
60
60
60
c0
c0
60
60
60
60
60
60
60
60
60
30
18
ENDCHAR
STARTCHAR LBrace2
ENCODING 57
SWIDTH 344 0
DWIDTH 10 0
BBX 7 36 2 -11
BITMAP
06
08
18
10
30
30
30
30
30
30
30
30
30
30
30
30
60
c0
c0
60
30
30
30
30
30
30
30
30
30
30
30
30
10
18
08
06
ENDCHAR
STARTCHAR LBrace3
ENCODING 58
SWIDTH 446 0
DWIDTH 12 0
BBX 10 47 2 -16
BITMAP
0180
0200
0600
0c00
0c00
0800
1800
1800
1800
1800
1800
1800
1800
1800
1800
1800
1800
1800
1800
1000
3000
2000
6000
ffc0
6000
2000
3000
1000
1800
1800
1800
1800
1800
1800
1800
1800
1800
1800
1800
1800
1800
0800
0c00
0400
0600
0200
0180
ENDCHAR
STARTCHAR LBrace4
ENCODING 59
SWIDTH 562 0
DWIDTH 16 0
BBX 13 58 2 -22
BITMAP
0018
0060
00c0
0180
0180
0300
0300
0200
0600
0600
0600
0600
0600
0600
0600
0600
0600
0600
0600
0600
0600
0600
0600
0600
0c00
0c00
1800
3000
6000
e000
3000
1800
0c00
0c00
0600
0600
0600
0600
0600
0600
0600
0600
0600
0600
0600
0600
0600
0600
0600
0600
0200
0300
0300
0180
0180
00c0
0060
0018
ENDCHAR
STARTCHAR RBrace1
ENCODING 60
SWIDTH 328 0
DWIDTH 9 0
BBX 6 24 2 -5
BITMAP
c0
20
30
30
30
30
30
30
30
30
30
18
1c
30
30
30
30
30
30
30
30
30
20
c0
ENDCHAR
STARTCHAR RBrace2
ENCODING 61
SWIDTH 344 0
DWIDTH 10 0
BBX 7 36 2 -11
BITMAP
c0
60
70
30
30
30
30
30
30
30
30
30
30
30
30
38
18
0c
0e
18
38
30
30
30
30
30
30
30
30
30
30
30
30
60
40
80
ENDCHAR
STARTCHAR RBrace3
ENCODING 62
SWIDTH 446 0
DWIDTH 12 0
BBX 10 47 2 -16
BITMAP
8000
4000
2000
3000
3000
1000
1800
1800
1800
1800
1800
1800
1800
1800
1800
1800
1800
1800
1c00
0c00
0c00
0600
0300
01c0
0300
0600
0c00
0c00
1c00
1800
1800
1800
1800
1800
1800
1800
1800
1800
1800
1800
1800
1000
3000
3000
2000
4000
8000
ENDCHAR
STARTCHAR RBrace4
ENCODING 63
SWIDTH 562 0
DWIDTH 16 0
BBX 13 58 2 -22
BITMAP
8000
6000
3000
1800
0800
0c00
0c00
0400
0600
0600
0600
0600
0600
0600
0600
0600
0600
0600
0600
0600
0600
0600
0600
0700
0300
0300
0180
00c0
0070
0078
00c0
0180
0300
0300
0700
0600
0600
0600
0600
0600
0600
0600
0600
0600
0600
0600
0600
0600
0600
0600
0400
0c00
0c00
0800
1800
3000
6000
c000
ENDCHAR
STARTCHAR LBracket1
ENCODING 64
SWIDTH 333 0
DWIDTH 9 0
BBX 6 24 2 -5
BITMAP
fc
c0
c0
c0
c0
c0
c0
c0
c0
c0
c0
c0
c0
c0
c0
c0
c0
c0
c0
c0
c0
c0
c0
fc
ENDCHAR
STARTCHAR LBracket2
ENCODING 65
SWIDTH 343 0
DWIDTH 10 0
BBX 6 35 2 -10
BITMAP
fc
c0
c0
c0
c0
c0
c0
c0
c0
c0
c0
c0
c0
c0
c0
c0
c0
c0
c0
c0
c0
c0
c0
c0
c0
c0
c0
c0
c0
c0
c0
c0
c0
c0
fc
ENDCHAR
STARTCHAR LBracket3
ENCODING 66
SWIDTH 353 0
DWIDTH 10 0
BBX 6 47 2 -16
BITMAP
fc
c0
c0
c0
c0
c0
c0
c0
c0
c0
c0
c0
c0
c0
c0
c0
c0
c0
c0
c0
c0
c0
c0
c0
c0
c0
c0
c0
c0
c0
c0
c0
c0
c0
c0
c0
c0
c0
c0
c0
c0
c0
c0
c0
c0
c0
fc
ENDCHAR
STARTCHAR LBracket4
ENCODING 67
SWIDTH 363 0
DWIDTH 10 0
BBX 7 58 2 -22
BITMAP
fe
c0
c0
c0
c0
c0
c0
c0
c0
c0
c0
c0
c0
c0
c0
c0
c0
c0
c0
c0
c0
c0
c0
c0
c0
c0
c0
c0
c0
c0
c0
c0
c0
c0
c0
c0
c0
c0
c0
c0
c0
c0
c0
c0
c0
c0
c0
c0
c0
c0
c0
c0
c0
c0
c0
c0
c0
fe
ENDCHAR
STARTCHAR RBracket1
ENCODING 68
SWIDTH 333 0
DWIDTH 9 0
BBX 6 24 1 -5
BITMAP
fc
0c
0c
0c
0c
0c
0c
0c
0c
0c
0c
0c
0c
0c
0c
0c
0c
0c
0c
0c
0c
0c
0c
fc
ENDCHAR
STARTCHAR RBracket2
ENCODING 69
SWIDTH 343 0
DWIDTH 10 0
BBX 6 35 1 -10
BITMAP
fc
0c
0c
0c
0c
0c
0c
0c
0c
0c
0c
0c
0c
0c
0c
0c
0c
0c
0c
0c
0c
0c
0c
0c
0c
0c
0c
0c
0c
0c
0c
0c
0c
0c
fc
ENDCHAR
STARTCHAR RBracket3
ENCODING 70
SWIDTH 353 0
DWIDTH 10 0
BBX 6 47 1 -16
BITMAP
fc
0c
0c
0c
0c
0c
0c
0c
0c
0c
0c
0c
0c
0c
0c
0c
0c
0c
0c
0c
0c
0c
0c
0c
0c
0c
0c
0c
0c
0c
0c
0c
0c
0c
0c
0c
0c
0c
0c
0c
0c
0c
0c
0c
0c
0c
fc
ENDCHAR
STARTCHAR RBracket4
ENCODING 71
SWIDTH 363 0
DWIDTH 10 0
BBX 7 58 1 -22
BITMAP
fe
06
06
06
06
06
06
06
06
06
06
06
06
06
06
06
06
06
06
06
06
06
06
06
06
06
06
06
06
06
06
06
06
06
06
06
06
06
06
06
06
06
06
06
06
06
06
06
06
06
06
06
06
06
06
06
06
fe
ENDCHAR
STARTCHAR LParen1
ENCODING 72
SWIDTH 321 0
DWIDTH 9 0
BBX 7 24 1 -5
BITMAP
02
0c
18
30
20
60
60
40
c0
c0
c0
c0
c0
c0
c0
c0
40
60
60
20
30
18
0c
02
ENDCHAR
STARTCHAR LParen2
ENCODING 73
SWIDTH 313 0
DWIDTH 9 0
BBX 7 36 1 -11
BITMAP
02
04
08
18
10
30
20
20
60
40
40
40
c0
c0
c0
c0
c0
c0
c0
c0
c0
c0
c0
c0
40
40
40
60
20
20
30
10
18
08
04
02
ENDCHAR
STARTCHAR LParen3
ENCODING 74
SWIDTH 334 0
DWIDTH 9 0
BBX 8 47 1 -16
BITMAP
01
02
06
04
0c
08
18
18
30
30
30
70
70
60
60
e0
e0
e0
e0
e0
e0
e0
e0
e0
e0
e0
e0
e0
e0
e0
e0
e0
60
60
70
70
70
30
30
18
18
18
0c
04
06
02
01
ENDCHAR
STARTCHAR LParen4
ENCODING 75
SWIDTH 380 0
DWIDTH 11 0
BBX 9 58 1 -22
BITMAP
0080
0100
0300
0600
0400
0c00
0c00
1800
1800
1800
3000
3000
3000
7000
7000
7000
6000
6000
e000
e000
e000
e000
e000
e000
e000
e000
e000
e000
e000
e000
e000
e000
e000
e000
e000
e000
e000
e000
e000
6000
6000
6000
7000
7000
7000
3000
3000
3000
1800
1800
1800
0c00
0c00
0400
0600
0300
0100
0080
ENDCHAR
STARTCHAR RParen1
ENCODING 76
SWIDTH 321 0
DWIDTH 9 0
BBX 7 24 1 -5
BITMAP
80
60
30
18
08
0c
0c
06
06
06
06
06
06
06
06
06
04
0c
0c
08
18
30
60
80
ENDCHAR
STARTCHAR RParen2
ENCODING 77
SWIDTH 313 0
DWIDTH 9 0
BBX 6 36 1 -11
BITMAP
80
c0
40
20
20
10
10
18
18
08
08
08
0c
0c
0c
0c
0c
0c
0c
0c
0c
0c
0c
0c
08
08
08
18
18
10
10
20
20
40
c0
80
ENDCHAR
STARTCHAR RParen3
ENCODING 78
SWIDTH 334 0
DWIDTH 9 0
BBX 7 47 1 -16
BITMAP
80
80
40
60
20
30
30
18
18
18
1c
1c
0c
0c
0c
0e
0e
0e
0e
0e
0e
0e
0e
0e
0e
0e
0e
0e
0e
0e
0e
0e
0c
0c
0c
1c
1c
18
18
18
30
30
20
60
40
80
80
ENDCHAR
STARTCHAR RParen4
ENCODING 79
SWIDTH 380 0
DWIDTH 11 0
BBX 8 58 1 -22
BITMAP
80
80
40
60
20
30
10
18
18
08
0c
0c
0c
0e
0e
06
06
06
06
07
07
07
07
07
07
07
07
07
07
07
07
07
07
07
07
07
07
07
07
07
06
06
06
0e
0e
0c
0c
0c
08
18
18
10
30
20
60
40
80
80
ENDCHAR
STARTCHAR DblLBracket1
ENCODING 80
SWIDTH 448 0
DWIDTH 13 0
BBX 9 24 2 -5
BITMAP
ff80
8c00
8c00
8c00
8c00
8c00
8c00
8c00
8c00
8c00
8c00
8c00
8c00
8c00
8c00
8c00
8c00
8c00
8c00
8c00
8c00
8c00
8c00
ff80
ENDCHAR
STARTCHAR DblLBracket2
ENCODING 81
SWIDTH 458 0
DWIDTH 13 0
BBX 10 35 2 -10
BITMAP
ffc0
8c00
8c00
8c00
8c00
8c00
8c00
8c00
8c00
8c00
8c00
8c00
8c00
8c00
8c00
8c00
8c00
8c00
8c00
8c00
8c00
8c00
8c00
8c00
8c00
8c00
8c00
8c00
8c00
8c00
8c00
8c00
8c00
8c00
ffc0
ENDCHAR
STARTCHAR DblLBracket3
ENCODING 82
SWIDTH 468 0
DWIDTH 13 0
BBX 10 47 2 -16
BITMAP
ffc0
8c00
8c00
8c00
8c00
8c00
8c00
8c00
8c00
8c00
8c00
8c00
8c00
8c00
8c00
8c00
8c00
8c00
8c00
8c00
8c00
8c00
8c00
8c00
8c00
8c00
8c00
8c00
8c00
8c00
8c00
8c00
8c00
8c00
8c00
8c00
8c00
8c00
8c00
8c00
8c00
8c00
8c00
8c00
8c00
8c00
ffc0
ENDCHAR
STARTCHAR DblLBracket4
ENCODING 83
SWIDTH 478 0
DWIDTH 13 0
BBX 11 58 2 -22
BITMAP
ffe0
8c00
8c00
8c00
8c00
8c00
8c00
8c00
8c00
8c00
8c00
8c00
8c00
8c00
8c00
8c00
8c00
8c00
8c00
8c00
8c00
8c00
8c00
8c00
8c00
8c00
8c00
8c00
8c00
8c00
8c00
8c00
8c00
8c00
8c00
8c00
8c00
8c00
8c00
8c00
8c00
8c00
8c00
8c00
8c00
8c00
8c00
8c00
8c00
8c00
8c00
8c00
8c00
8c00
8c00
8c00
8c00
ffe0
ENDCHAR
STARTCHAR DblRBracket1
ENCODING 84
SWIDTH 448 0
DWIDTH 13 0
BBX 9 24 1 -5
BITMAP
ff80
0c80
0c80
0c80
0c80
0c80
0c80
0c80
0c80
0c80
0c80
0c80
0c80
0c80
0c80
0c80
0c80
0c80
0c80
0c80
0c80
0c80
0c80
ff80
ENDCHAR
STARTCHAR DblRBracket2
ENCODING 85
SWIDTH 458 0
DWIDTH 13 0
BBX 9 35 1 -10
BITMAP
ff80
0c80
0c80
0c80
0c80
0c80
0c80
0c80
0c80
0c80
0c80
0c80
0c80
0c80
0c80
0c80
0c80
0c80
0c80
0c80
0c80
0c80
0c80
0c80
0c80
0c80
0c80
0c80
0c80
0c80
0c80
0c80
0c80
0c80
ff80
ENDCHAR
STARTCHAR DblRBracket3
ENCODING 86
SWIDTH 468 0
DWIDTH 13 0
BBX 10 47 1 -16
BITMAP
ffc0
0c40
0c40
0c40
0c40
0c40
0c40
0c40
0c40
0c40
0c40
0c40
0c40
0c40
0c40
0c40
0c40
0c40
0c40
0c40
0c40
0c40
0c40
0c40
0c40
0c40
0c40
0c40
0c40
0c40
0c40
0c40
0c40
0c40
0c40
0c40
0c40
0c40
0c40
0c40
0c40
0c40
0c40
0c40
0c40
0c40
ffc0
ENDCHAR
STARTCHAR DblRBracket4
ENCODING 87
SWIDTH 478 0
DWIDTH 13 0
BBX 10 58 1 -22
BITMAP
ffc0
0640
0640
0640
0640
0640
0640
0640
0640
0640
0640
0640
0640
0640
0640
0640
0640
0640
0640
0640
0640
0640
0640
0640
0640
0640
0640
0640
0640
0640
0640
0640
0640
0640
0640
0640
0640
0640
0640
0640
0640
0640
0640
0640
0640
0640
0640
0640
0640
0640
0640
0640
0640
0640
0640
0640
0640
ffc0
ENDCHAR
STARTCHAR LAngleBracket1
ENCODING 88
SWIDTH 363 0
DWIDTH 10 0
BBX 7 24 2 -5
BITMAP
02
06
04
0c
08
18
10
30
20
60
40
c0
c0
40
60
20
30
10
18
08
0c
04
06
02
ENDCHAR
STARTCHAR LAngleBracket2
ENCODING 89
SWIDTH 341 0
DWIDTH 10 0
BBX 6 35 2 -10
BITMAP
04
04
0c
08
08
18
18
10
30
30
20
20
60
60
40
c0
c0
c0
c0
c0
40
60
60
20
20
30
30
10
18
18
08
08
0c
04
04
ENDCHAR
STARTCHAR LAngleBracket3
ENCODING 90
SWIDTH 341 0
DWIDTH 10 0
BBX 6 47 2 -16
BITMAP
04
04
0c
0c
08
08
08
18
18
10
10
30
30
30
20
20
60
60
60
40
c0
c0
c0
c0
c0
c0
c0
40
60
60
60
20
20
30
30
30
10
10
18
18
08
08
08
0c
0c
04
04
ENDCHAR
STARTCHAR LAngleBracket4
ENCODING 91
SWIDTH 356 0
DWIDTH 10 0
BBX 7 58 2 -22
BITMAP
02
06
06
06
04
04
0c
0c
0c
08
08
18
18
18
10
10
30
30
30
30
20
60
60
60
60
40
c0
c0
c0
c0
c0
c0
40
60
60
60
60
20
30
30
30
30
10
10
18
18
18
08
08
0c
0c
0c
04
04
06
06
06
02
ENDCHAR
STARTCHAR RAngleBracket1
ENCODING 92
SWIDTH 363 0
DWIDTH 10 0
BBX 7 24 2 -5
BITMAP
80
c0
40
60
20
30
10
18
08
0c
04
06
06
04
0c
08
18
10
30
20
60
40
c0
80
ENDCHAR
STARTCHAR RAngleBracket2
ENCODING 93
SWIDTH 341 0
DWIDTH 10 0
BBX 6 35 2 -10
BITMAP
80
80
c0
40
40
60
60
20
30
30
10
10
18
18
08
0c
0c
0c
0c
0c
08
18
18
10
10
30
30
20
60
60
40
40
c0
80
80
ENDCHAR
STARTCHAR RAngleBracket3
ENCODING 94
SWIDTH 341 0
DWIDTH 10 0
BBX 6 47 2 -16
BITMAP
80
80
c0
c0
40
40
40
60
60
20
20
30
30
30
10
10
18
18
18
08
0c
0c
0c
0c
0c
0c
0c
08
18
18
18
10
10
30
30
30
20
20
60
60
40
40
40
c0
c0
80
80
ENDCHAR
STARTCHAR RAngleBracket4
ENCODING 95
SWIDTH 356 0
DWIDTH 10 0
BBX 7 58 2 -22
BITMAP
80
c0
c0
c0
40
40
60
60
60
20
20
30
30
30
10
10
18
18
18
18
08
0c
0c
0c
0c
04
06
06
06
06
06
06
04
0c
0c
0c
0c
08
18
18
18
18
10
10
30
30
30
20
20
60
60
60
40
40
c0
c0
c0
80
ENDCHAR
STARTCHAR LCeiling1
ENCODING 96
SWIDTH 371 0
DWIDTH 10 0
BBX 7 24 2 -5
BITMAP
fe
fe
c0
c0
c0
c0
c0
c0
c0
c0
c0
c0
c0
c0
c0
c0
c0
c0
c0
c0
c0
c0
c0
c0
ENDCHAR
STARTCHAR LCeiling2
ENCODING 97
SWIDTH 371 0
DWIDTH 10 0
BBX 7 35 2 -10
BITMAP
fe
fe
c0
c0
c0
c0
c0
c0
c0
c0
c0
c0
c0
c0
c0
c0
c0
c0
c0
c0
c0
c0
c0
c0
c0
c0
c0
c0
c0
c0
c0
c0
c0
c0
c0
ENDCHAR
STARTCHAR LCeiling3
ENCODING 98
SWIDTH 371 0
DWIDTH 10 0
BBX 7 47 2 -16
BITMAP
fe
fe
c0
c0
c0
c0
c0
c0
c0
c0
c0
c0
c0
c0
c0
c0
c0
c0
c0
c0
c0
c0
c0
c0
c0
c0
c0
c0
c0
c0
c0
c0
c0
c0
c0
c0
c0
c0
c0
c0
c0
c0
c0
c0
c0
c0
c0
ENDCHAR
STARTCHAR LCeiling4
ENCODING 99
SWIDTH 371 0
DWIDTH 10 0
BBX 7 58 2 -22
BITMAP
fe
fe
c0
c0
c0
c0
c0
c0
c0
c0
c0
c0
c0
c0
c0
c0
c0
c0
c0
c0
c0
c0
c0
c0
c0
c0
c0
c0
c0
c0
c0
c0
c0
c0
c0
c0
c0
c0
c0
c0
c0
c0
c0
c0
c0
c0
c0
c0
c0
c0
c0
c0
c0
c0
c0
c0
c0
c0
ENDCHAR
STARTCHAR LFloor1
ENCODING 100
SWIDTH 371 0
DWIDTH 10 0
BBX 7 24 2 -5
BITMAP
c0
c0
c0
c0
c0
c0
c0
c0
c0
c0
c0
c0
c0
c0
c0
c0
c0
c0
c0
c0
c0
c0
fe
fe
ENDCHAR
STARTCHAR LFloor2
ENCODING 101
SWIDTH 371 0
DWIDTH 10 0
BBX 7 35 2 -10
BITMAP
c0
c0
c0
c0
c0
c0
c0
c0
c0
c0
c0
c0
c0
c0
c0
c0
c0
c0
c0
c0
c0
c0
c0
c0
c0
c0
c0
c0
c0
c0
c0
c0
c0
fe
fe
ENDCHAR
STARTCHAR LFloor3
ENCODING 102
SWIDTH 371 0
DWIDTH 10 0
BBX 7 47 2 -16
BITMAP
c0
c0
c0
c0
c0
c0
c0
c0
c0
c0
c0
c0
c0
c0
c0
c0
c0
c0
c0
c0
c0
c0
c0
c0
c0
c0
c0
c0
c0
c0
c0
c0
c0
c0
c0
c0
c0
c0
c0
c0
c0
c0
c0
c0
c0
fe
fe
ENDCHAR
STARTCHAR LFloor4
ENCODING 103
SWIDTH 371 0
DWIDTH 10 0
BBX 7 58 2 -22
BITMAP
c0
c0
c0
c0
c0
c0
c0
c0
c0
c0
c0
c0
c0
c0
c0
c0
c0
c0
c0
c0
c0
c0
c0
c0
c0
c0
c0
c0
c0
c0
c0
c0
c0
c0
c0
c0
c0
c0
c0
c0
c0
c0
c0
c0
c0
c0
c0
c0
c0
c0
c0
c0
c0
c0
c0
c0
fe
fe
ENDCHAR
STARTCHAR LFlrClngExtens
ENCODING 104
SWIDTH 371 0
DWIDTH 10 0
BBX 2 9 2 0
BITMAP
c0
c0
c0
c0
c0
c0
c0
c0
c0
ENDCHAR
STARTCHAR LParenTop
ENCODING 105
SWIDTH 400 0
DWIDTH 11 0
BBX 9 23 2 -1
BITMAP
0080
0100
0200
0400
0c00
1800
1800
3000
3000
3000
6000
6000
6000
6000
e000
e000
e000
e000
e000
e000
e000
e000
e000
ENDCHAR
STARTCHAR LParenExtens
ENCODING 106
SWIDTH 400 0
DWIDTH 11 0
BBX 3 9 1 0
BITMAP
e0
e0
e0
e0
e0
e0
e0
e0
e0
ENDCHAR
STARTCHAR LParenBottom
ENCODING 107
SWIDTH 400 0
DWIDTH 11 0
BBX 10 23 1 0
BITMAP
e000
e000
e000
e000
e000
e000
e000
e000
6000
6000
7000
7000
7000
3000
3800
1800
1800
0c00
0c00
0600
0300
0180
0040
ENDCHAR
STARTCHAR LBraceTop
ENCODING 108
SWIDTH 552 0
DWIDTH 15 0
BBX 7 19 7 -1
BITMAP
02
04
18
10
30
20
60
60
60
e0
c0
c0
c0
c0
c0
c0
c0
c0
c0
ENDCHAR
STARTCHAR LBraceMiddle
ENCODING 109
SWIDTH 552 0
DWIDTH 15 0
BBX 7 20 2 -3
BITMAP
0e
0e
0e
0e
0c
1c
18
38
30
c0
c0
30
38
1c
1c
0c
0e
0e
0e
0e
ENDCHAR
STARTCHAR LBraceBottom
ENCODING 110
SWIDTH 552 0
DWIDTH 15 0
BBX 8 19 6 0
BITMAP
e0
e0
e0
e0
e0
e0
e0
e0
60
60
60
70
30
30
18
18
0c
06
01
ENDCHAR
STARTCHAR BraceExtens
ENCODING 111
SWIDTH 552 0
DWIDTH 15 0
BBX 3 9 6 0
BITMAP
e0
e0
e0
e0
e0
e0
e0
e0
e0
ENDCHAR
STARTCHAR RCeiling1
ENCODING 112
SWIDTH 371 0
DWIDTH 10 0
BBX 7 24 1 -5
BITMAP
fe
fe
06
06
06
06
06
06
06
06
06
06
06
06
06
06
06
06
06
06
06
06
06
06
ENDCHAR
STARTCHAR RCeiling2
ENCODING 113
SWIDTH 371 0
DWIDTH 10 0
BBX 7 35 1 -10
BITMAP
fe
fe
06
06
06
06
06
06
06
06
06
06
06
06
06
06
06
06
06
06
06
06
06
06
06
06
06
06
06
06
06
06
06
06
06
ENDCHAR
STARTCHAR RCeiling3
ENCODING 114
SWIDTH 371 0
DWIDTH 10 0
BBX 7 47 1 -16
BITMAP
fe
fe
06
06
06
06
06
06
06
06
06
06
06
06
06
06
06
06
06
06
06
06
06
06
06
06
06
06
06
06
06
06
06
06
06
06
06
06
06
06
06
06
06
06
06
06
06
ENDCHAR
STARTCHAR RCeiling4
ENCODING 115
SWIDTH 371 0
DWIDTH 10 0
BBX 7 58 1 -22
BITMAP
fe
fe
06
06
06
06
06
06
06
06
06
06
06
06
06
06
06
06
06
06
06
06
06
06
06
06
06
06
06
06
06
06
06
06
06
06
06
06
06
06
06
06
06
06
06
06
06
06
06
06
06
06
06
06
06
06
06
06
ENDCHAR
STARTCHAR RFloor1
ENCODING 116
SWIDTH 371 0
DWIDTH 10 0
BBX 7 24 1 -5
BITMAP
06
06
06
06
06
06
06
06
06
06
06
06
06
06
06
06
06
06
06
06
06
06
fe
fe
ENDCHAR
STARTCHAR RFloor2
ENCODING 117
SWIDTH 371 0
DWIDTH 10 0
BBX 7 35 1 -10
BITMAP
06
06
06
06
06
06
06
06
06
06
06
06
06
06
06
06
06
06
06
06
06
06
06
06
06
06
06
06
06
06
06
06
06
fe
fe
ENDCHAR
STARTCHAR RFloor3
ENCODING 118
SWIDTH 371 0
DWIDTH 10 0
BBX 7 47 1 -16
BITMAP
06
06
06
06
06
06
06
06
06
06
06
06
06
06
06
06
06
06
06
06
06
06
06
06
06
06
06
06
06
06
06
06
06
06
06
06
06
06
06
06
06
06
06
06
06
fe
fe
ENDCHAR
STARTCHAR RFloor4
ENCODING 119
SWIDTH 371 0
DWIDTH 10 0
BBX 7 58 1 -22
BITMAP
06
06
06
06
06
06
06
06
06
06
06
06
06
06
06
06
06
06
06
06
06
06
06
06
06
06
06
06
06
06
06
06
06
06
06
06
06
06
06
06
06
06
06
06
06
06
06
06
06
06
06
06
06
06
06
06
fe
fe
ENDCHAR
STARTCHAR RFlrClngExtens
ENCODING 120
SWIDTH 371 0
DWIDTH 10 0
BBX 2 9 6 0
BITMAP
c0
c0
c0
c0
c0
c0
c0
c0
c0
ENDCHAR
STARTCHAR RParenTop
ENCODING 121
SWIDTH 400 0
DWIDTH 11 0
BBX 9 23 1 -1
BITMAP
8000
4000
2000
1000
1800
0c00
0c00
0600
0600
0600
0300
0300
0300
0300
0380
0380
0380
0380
0380
0380
0380
0380
0380
ENDCHAR
STARTCHAR RParenExtens
ENCODING 122
SWIDTH 400 0
DWIDTH 11 0
BBX 3 9 7 0
BITMAP
e0
e0
e0
e0
e0
e0
e0
e0
e0
ENDCHAR
STARTCHAR RParenBottom
ENCODING 123
SWIDTH 400 0
DWIDTH 11 0
BBX 9 23 1 0
BITMAP
0380
0380
0380
0380
0380
0380
0380
0380
0380
0300
0300
0300
0300
0600
0600
0600
0c00
0c00
1800
1000
2000
4000
8000
ENDCHAR
STARTCHAR RBraceTop
ENCODING 124
SWIDTH 552 0
DWIDTH 15 0
BBX 7 19 2 -1
BITMAP
80
40
30
10
18
08
0c
0c
0c
0e
06
06
06
06
06
06
06
06
06
ENDCHAR
STARTCHAR RBraceMiddle
ENCODING 125
SWIDTH 552 0
DWIDTH 15 0
BBX 8 20 6 -3
BITMAP
e0
e0
e0
e0
60
70
30
38
1c
06
07
1c
38
30
70
60
e0
e0
e0
e0
ENDCHAR
STARTCHAR RBraceBottom
ENCODING 126
SWIDTH 552 0
DWIDTH 15 0
BBX 7 19 2 0
BITMAP
06
06
06
06
06
06
06
06
06
0e
0c
0c
0c
08
18
10
30
40
80
ENDCHAR
STARTCHAR LBracketTop
ENCODING 128
SWIDTH 363 0
DWIDTH 10 0
BBX 7 4 2 0
BITMAP
fe
c0
c0
c0
ENDCHAR
STARTCHAR LBracketExtens
ENCODING 129
SWIDTH 363 0
DWIDTH 10 0
BBX 2 9 2 0
BITMAP
c0
c0
c0
c0
c0
c0
c0
c0
c0
ENDCHAR
STARTCHAR LBracketBottom
ENCODING 130
SWIDTH 363 0
DWIDTH 10 0
BBX 7 4 2 0
BITMAP
c0
c0
c0
fe
ENDCHAR
STARTCHAR RBracketTop
ENCODING 131
SWIDTH 363 0
DWIDTH 10 0
BBX 7 4 1 0
BITMAP
fe
06
06
06
ENDCHAR
STARTCHAR RBracketExtens
ENCODING 132
SWIDTH 363 0
DWIDTH 10 0
BBX 2 9 6 0
BITMAP
c0
c0
c0
c0
c0
c0
c0
c0
c0
ENDCHAR
STARTCHAR RBracketBottom
ENCODING 133
SWIDTH 363 0
DWIDTH 10 0
BBX 7 4 1 0
BITMAP
06
06
06
fe
ENDCHAR
STARTCHAR DblLBracketBottom
ENCODING 134
SWIDTH 478 0
DWIDTH 13 0
BBX 11 4 2 0
BITMAP
8c00
8c00
8c00
ffe0
ENDCHAR
STARTCHAR DblLBracketExtens
ENCODING 135
SWIDTH 478 0
DWIDTH 13 0
BBX 6 9 2 0
BITMAP
8c
8c
8c
8c
8c
8c
8c
8c
8c
ENDCHAR
STARTCHAR DblLBracketTop
ENCODING 136
SWIDTH 478 0
DWIDTH 13 0
BBX 11 4 2 0
BITMAP
ffe0
8c00
8c00
8c00
ENDCHAR
STARTCHAR DblRBracketBottom
ENCODING 137
SWIDTH 478 0
DWIDTH 13 0
BBX 10 4 1 0
BITMAP
0640
0640
0640
ffc0
ENDCHAR
STARTCHAR DblRBracketExtens
ENCODING 138
SWIDTH 478 0
DWIDTH 13 0
BBX 5 9 6 0
BITMAP
c8
c8
c8
c8
c8
c8
c8
c8
c8
ENDCHAR
STARTCHAR DblRBracketTop
ENCODING 139
SWIDTH 478 0
DWIDTH 13 0
BBX 10 4 1 0
BITMAP
ffc0
0640
0640
0640
ENDCHAR
STARTCHAR LeftHook
ENCODING 140
SWIDTH 200 0
DWIDTH 6 0
BBX 6 23 0 0
BITMAP
fc
80
80
80
80
80
80
80
80
80
80
80
80
80
80
80
80
80
80
80
80
80
80
ENDCHAR
STARTCHAR HookExt
ENCODING 141
SWIDTH 200 0
DWIDTH 6 0
BBX 6 1 0 22
BITMAP
fc
ENDCHAR
STARTCHAR RightHook
ENCODING 142
SWIDTH 200 0
DWIDTH 6 0
BBX 6 23 0 0
BITMAP
fc
04
04
04
04
04
04
04
04
04
04
04
04
04
04
04
04
04
04
04
04
04
04
ENDCHAR
STARTCHAR Radical1
ENCODING 143
SWIDTH 805 0
DWIDTH 23 0
BBX 20 31 2 -21
BITMAP
000070
000040
000040
0000c0
0000c0
000080
000080
000180
000180
000100
000300
000300
000200
180200
3c0600
dc0600
0e0400
0e0c00
070c00
070800
038800
039800
039800
01d000
01f000
00f000
00f000
006000
006000
002000
002000
ENDCHAR
STARTCHAR Slash1
ENCODING 144
SWIDTH 317 0
DWIDTH 9 0
BBX 8 24 0 -5
BITMAP
01
03
03
02
02
06
04
04
0c
08
08
18
18
10
10
30
20
20
60
40
40
c0
c0
80
ENDCHAR
STARTCHAR Slash2
ENCODING 145
SWIDTH 452 0
DWIDTH 13 0
BBX 12 35 0 -10
BITMAP
0010
0030
0020
0020
0060
0060
0040
00c0
00c0
0080
0080
0180
0100
0100
0300
0200
0200
0600
0400
0400
0c00
0800
0800
1800
1800
1000
3000
3000
2000
2000
6000
4000
4000
c000
8000
ENDCHAR
STARTCHAR Slash3
ENCODING 146
SWIDTH 591 0
DWIDTH 17 0
BBX 16 47 0 -16
BITMAP
0001
0003
0002
0002
0006
0004
0004
000c
000c
0008
0018
0018
0010
0030
0030
0020
0020
0060
0040
0040
00c0
0080
0080
0180
0100
0100
0300
0200
0200
0600
0400
0400
0c00
0c00
0800
1800
1800
1000
3000
3000
2000
2000
6000
4000
4000
c000
8000
ENDCHAR
STARTCHAR Slash4
ENCODING 147
SWIDTH 716 0
DWIDTH 20 0
BBX 20 59 0 -22
BITMAP
000010
000030
000020
000020
000060
000040
000040
0000c0
000080
000080
000180
000100
000100
000300
000300
000200
000600
000600
000400
000c00
000c00
000800
000800
001800
001000
001000
003000
002000
002000
006000
004000
004000
00c000
008000
008000
018000
018000
010000
030000
030000
020000
060000
060000
040000
0c0000
0c0000
080000
080000
180000
100000
100000
300000
200000
200000
600000
400000
400000
c00000
800000
ENDCHAR
STARTCHAR BackSlash1
ENCODING 148
SWIDTH 317 0
DWIDTH 9 0
BBX 8 24 0 -5
BITMAP
80
c0
c0
40
40
60
20
20
30
10
10
18
18
08
08
0c
04
04
06
02
02
03
03
01
ENDCHAR
STARTCHAR BackSlash2
ENCODING 149
SWIDTH 452 0
DWIDTH 13 0
BBX 12 35 0 -10
BITMAP
8000
c000
4000
4000
6000
2000
2000
3000
3000
1000
1800
1800
0800
0800
0c00
0400
0400
0600
0200
0200
0300
0100
0100
0180
0080
0080
00c0
00c0
0040
0060
0060
0020
0020
0030
0010
ENDCHAR
STARTCHAR BackSlash3
ENCODING 150
SWIDTH 591 0
DWIDTH 17 0
BBX 16 47 0 -16
BITMAP
8000
c000
4000
4000
6000
2000
2000
3000
3000
1000
1800
1800
0800
0c00
0c00
0400
0400
0600
0200
0200
0300
0100
0100
0180
0080
0080
00c0
0040
0040
0060
0020
0020
0030
0030
0010
0018
0018
0008
000c
000c
0004
0004
0006
0002
0002
0003
0001
ENDCHAR
STARTCHAR BackSlash4
ENCODING 151
SWIDTH 716 0
DWIDTH 20 0
BBX 20 59 0 -22
BITMAP
800000
c00000
400000
400000
600000
200000
200000
300000
100000
100000
180000
080000
080000
0c0000
0c0000
040000
060000
060000
020000
030000
030000
010000
010000
018000
008000
008000
00c000
004000
004000
006000
002000
002000
003000
001000
001000
001800
000800
000800
000c00
000c00
000400
000600
000600
000200
000300
000300
000100
000100
000180
000080
000080
0000c0
000040
000040
000060
000020
000020
000030
000010
ENDCHAR
STARTCHAR ContourIntegral
ENCODING 152
SWIDTH 390 0
DWIDTH 11 0
BBX 17 35 1 -6
BITMAP
000700
001b80
003380
003000
007000
006000
006000
00e000
00e000
00e000
00e000
00e000
07f800
0cec00
18e600
10e300
21c100
21c100
21c100
21c100
31c300
11c200
0dcc00
07f800
01e000
01c000
018000
018000
018000
018000
010000
030000
e20000
e60000
780000
ENDCHAR
STARTCHAR DblContInteg
ENCODING 153
SWIDTH 739 0
DWIDTH 21 0
BBX 27 35 1 -6
BITMAP
000f03c0
00138ce0
00338ce0
00209820
00601800
00603000
00603000
00e03000
00e03000
00e07000
00e07000
00e07000
01fff800
06c07e00
0cc07300
08c07100
11c07080
11c07080
11c06080
11c0e080
11c0e080
09c0e100
0dc0e300
07c0ee00
03fff800
01c0e000
01c0e000
0180c000
0180c000
0180c000
0180c000
03008000
e3398000
e6390000
3c1e0000
ENDCHAR
STARTCHAR CntrClckwContInteg
ENCODING 154
SWIDTH 390 0
DWIDTH 11 0
BBX 17 35 1 -6
BITMAP
000f00
001380
003380
006000
006000
006000
006000
00e000
00e000
00e000
00e000
00e000
07f000
0cf800
18ec00
10c600
21c600
21c600
21cf00
21ce80
31c600
11c400
0dc800
07f800
01e000
01c000
01c000
018000
018000
018000
018000
030000
e20000
e60000
780000
ENDCHAR
STARTCHAR ClckwContInteg
ENCODING 155
SWIDTH 390 0
DWIDTH 11 0
BBX 17 35 1 -6
BITMAP
000700
001b80
003380
003000
007000
006000
006000
00e000
00e000
00e000
00e000
00e000
07f800
0cec00
18e600
10e300
31e100
31e100
79c100
bdc100
31c300
19c200
0dcc00
07f800
01e000
01c000
01c000
018000
018000
018000
010000
030000
e20000
e60000
780000
ENDCHAR
STARTCHAR SquareContInteg
ENCODING 156
SWIDTH 390 0
DWIDTH 11 0
BBX 17 35 1 -6
BITMAP
000f00
001b80
003380
003000
006000
006000
006000
00e000
00e000
00e000
00e000
00e000
1ffe00
10e200
10e200
10e200
11e200
11c200
11c200
11c200
11c200
11c200
11c200
11c200
1ffe00
01c000
01c000
01c000
018000
018000
018000
010000
e30000
e60000
380000
ENDCHAR
STARTCHAR UnionPlus
ENCODING 157
SWIDTH 853 0
DWIDTH 24 0
BBX 20 25 2 -4
BITMAP
800010
800010
800010
800010
800010
800010
800010
800010
800010
804010
804010
804010
804010
804010
8ffe10
804010
804010
804010
804030
404020
600040
3000c0
180180
0e0e00
03f800
ENDCHAR
STARTCHAR SquareIntersection
ENCODING 158
SWIDTH 853 0
DWIDTH 24 0
BBX 20 25 2 -4
BITMAP
fffff0
800010
800010
800010
800010
800010
800010
800010
800010
800010
800010
800010
800010
800010
800010
800010
800010
800010
800010
800010
800010
800010
800010
800010
800010
ENDCHAR
STARTCHAR SquareUnion
ENCODING 159
SWIDTH 853 0
DWIDTH 24 0
BBX 20 25 2 -4
BITMAP
800010
800010
800010
800010
800010
800010
800010
800010
800010
800010
800010
800010
800010
800010
800010
800010
800010
800010
800010
800010
800010
800010
800010
800010
fffff0
ENDCHAR
STARTCHAR LBracketBar1
ENCODING 160
SWIDTH 232 0
DWIDTH 6 0
BBX 2 24 2 -5
BITMAP
c0
c0
c0
c0
c0
c0
c0
c0
c0
c0
c0
c0
c0
c0
c0
c0
c0
c0
c0
c0
c0
c0
c0
c0
ENDCHAR
STARTCHAR LBracketBar2
ENCODING 161
SWIDTH 232 0
DWIDTH 6 0
BBX 2 35 2 -10
BITMAP
c0
c0
c0
c0
c0
c0
c0
c0
c0
c0
c0
c0
c0
c0
c0
c0
c0
c0
c0
c0
c0
c0
c0
c0
c0
c0
c0
c0
c0
c0
c0
c0
c0
c0
c0
ENDCHAR
STARTCHAR LBracketBar3
ENCODING 162
SWIDTH 232 0
DWIDTH 6 0
BBX 2 47 2 -16
BITMAP
c0
c0
c0
c0
c0
c0
c0
c0
c0
c0
c0
c0
c0
c0
c0
c0
c0
c0
c0
c0
c0
c0
c0
c0
c0
c0
c0
c0
c0
c0
c0
c0
c0
c0
c0
c0
c0
c0
c0
c0
c0
c0
c0
c0
c0
c0
c0
ENDCHAR
STARTCHAR LBracketBar4
ENCODING 163
SWIDTH 232 0
DWIDTH 6 0
BBX 2 58 2 -22
BITMAP
c0
c0
c0
c0
c0
c0
c0
c0
c0
c0
c0
c0
c0
c0
c0
c0
c0
c0
c0
c0
c0
c0
c0
c0
c0
c0
c0
c0
c0
c0
c0
c0
c0
c0
c0
c0
c0
c0
c0
c0
c0
c0
c0
c0
c0
c0
c0
c0
c0
c0
c0
c0
c0
c0
c0
c0
c0
c0
ENDCHAR
STARTCHAR RBracketBar1
ENCODING 164
SWIDTH 232 0
DWIDTH 6 0
BBX 2 24 2 -5
BITMAP
c0
c0
c0
c0
c0
c0
c0
c0
c0
c0
c0
c0
c0
c0
c0
c0
c0
c0
c0
c0
c0
c0
c0
c0
ENDCHAR
STARTCHAR RBracketBar2
ENCODING 165
SWIDTH 232 0
DWIDTH 6 0
BBX 2 35 2 -10
BITMAP
c0
c0
c0
c0
c0
c0
c0
c0
c0
c0
c0
c0
c0
c0
c0
c0
c0
c0
c0
c0
c0
c0
c0
c0
c0
c0
c0
c0
c0
c0
c0
c0
c0
c0
c0
ENDCHAR
STARTCHAR RBracketBar3
ENCODING 166
SWIDTH 232 0
DWIDTH 6 0
BBX 2 47 2 -16
BITMAP
c0
c0
c0
c0
c0
c0
c0
c0
c0
c0
c0
c0
c0
c0
c0
c0
c0
c0
c0
c0
c0
c0
c0
c0
c0
c0
c0
c0
c0
c0
c0
c0
c0
c0
c0
c0
c0
c0
c0
c0
c0
c0
c0
c0
c0
c0
c0
ENDCHAR
STARTCHAR RBracketBar4
ENCODING 167
SWIDTH 232 0
DWIDTH 6 0
BBX 2 58 2 -22
BITMAP
c0
c0
c0
c0
c0
c0
c0
c0
c0
c0
c0
c0
c0
c0
c0
c0
c0
c0
c0
c0
c0
c0
c0
c0
c0
c0
c0
c0
c0
c0
c0
c0
c0
c0
c0
c0
c0
c0
c0
c0
c0
c0
c0
c0
c0
c0
c0
c0
c0
c0
c0
c0
c0
c0
c0
c0
c0
c0
ENDCHAR
STARTCHAR ContourIntegral2
ENCODING 168
SWIDTH 640 0
DWIDTH 18 0
BBX 28 62 2 -18
BITMAP
000007c0
000018e0
000030f0
000060f0
0000e070
0000c000
0001c000
00018000
00018000
00038000
00038000
00030000
00030000
00070000
00070000
00070000
00070000
00070000
00070000
00070000
00070000
007fe000
00e67000
038e1c00
060e0400
040e0200
0c0e0300
080e0100
180e0180
100e0080
100e0080
100e0080
100e0080
100e0080
100e0080
181e0100
081e0100
0c1c0300
041c0200
061c0400
039c1800
01fc7000
007fc000
001c0000
001c0000
001c0000
001c0000
001c0000
001c0000
001c0000
001c0000
00180000
00180000
00180000
00300000
00300000
00300000
e0600000
f0600000
f0c00000
71800000
1e000000
ENDCHAR
STARTCHAR DblContInteg2
ENCODING 169
SWIDTH 1248 0
DWIDTH 35 0
BBX 45 62 2 -18
BITMAP
000007c003e0
00001c600c70
000030701838
000070303038
0000e0307018
0000e0006000
0001c000e000
0001c000e000
0003c000c000
00038001c000
00038001c000
00038001c000
00078001c000
000780018000
000780038000
000700038000
000700038000
000700038000
000700038000
000700038000
000f00038000
003fffffc000
00ef0003b800
018f00078c00
020f00070600
040f00070300
0c0f00070180
080e00070080
080e00070080
100e00070040
100e00070040
100e00070040
100e00070040
100e00070040
101e00070040
101e00070040
081e000f0080
081e000f0080
0c1c000e0100
041c000e0300
021c000e0600
019c000e0c00
00fc000e3000
003fffffc000
001c00060000
001c00060000
001c00060000
001c00060000
001c00060000
001800060000
001800060000
001800040000
001800040000
001800040000
0030000c0000
003000080000
003000080000
e06070180000
f06078100000
f0c078200000
71803c600000
1e000f800000
ENDCHAR
STARTCHAR CntrClckwContInteg2
ENCODING 170
SWIDTH 640 0
DWIDTH 18 0
BBX 30 62 2 -18
BITMAP
000007c0
000018e0
000030f0
000060f0
0000e070
0000c000
0001c000
00018000
00018000
00038000
00038000
00030000
00030000
00070000
00070000
00070000
00070000
00070000
00070000
00070000
00070000
007fe000
00e67000
038e1800
060e0400
040e0200
0c0e0300
080e0100
180e0100
100e0080
100e0080
100e01c0
100e03e0
100e06b0
100e0c98
181e0904
081e0100
0c1c0300
041c0200
061c0400
039c1800
01fc7000
007fc000
001c0000
001c0000
001c0000
001c0000
001c0000
001c0000
001c0000
001c0000
00180000
00180000
00180000
00300000
00300000
00300000
e0600000
f0600000
f0c00000
71800000
1e000000
ENDCHAR
STARTCHAR ClckwContInteg2
ENCODING 171
SWIDTH 640 0
DWIDTH 18 0
BBX 29 62 1 -18
BITMAP
000003e0
00000c70
00003878
00003078
00007038
0000e000
0000e000
0001c000
0001c000
0001c000
0003c000
00038000
00038000
00038000
00038000
00038000
00078000
00078000
00078000
00078000
00078000
003ff000
00e73800
01870e00
03070200
02070100
06070180
04070080
0c0700c0
08070040
08070040
1c070040
3e0f0040
6b0f0040
c98f0040
8c8f0080
040f0080
060e0180
020e0100
030e0200
01ce0c00
007e3800
003fe000
000e0000
000e0000
000c0000
000c0000
000c0000
000c0000
000c0000
000c0000
000c0000
00080000
00080000
00180000
00180000
00100000
70300000
78300000
78600000
38c00000
0f000000
ENDCHAR
STARTCHAR SquareContInteg2
ENCODING 172
SWIDTH 640 0
DWIDTH 18 0
BBX 28 62 2 -18
BITMAP
00000f80
000018e0
000070f0
000060f0
0000e070
0001c000
0001c000
0001c000
00038000
00038000
00038000
00078000
00070000
00070000
00070000
00070000
000f0000
000f0000
000f0000
000f0000
000f0000
000f0000
1fffff00
100f0100
100e0100
100e0100
100e0100
100e0100
100e0100
100e0100
100e0100
101e0100
101e0100
101e0100
101e0100
101e0100
101e0100
101c0100
101c0100
101c0100
101c0100
101c0100
1fffff00
001c0000
001c0000
001c0000
00180000
00180000
00180000
00180000
00180000
00180000
00100000
00100000
00300000
00300000
00200000
e0600000
f0400000
f0c00000
71800000
3e000000
ENDCHAR
STARTCHAR UnionPlus2
ENCODING 173
SWIDTH 1255 0
DWIDTH 35 0
BBX 31 43 2 -12
BITMAP
c0000006
c0000006
c0000006
c0000006
c0000006
c0000006
c0000006
c0000006
c0000006
c0000006
c0000006
c0000006
c0000006
c0000006
c0000006
c0000006
c0000006
c0000006
c0000006
c0010006
c0010006
c0010006
c0010006
c0010006
c0010006
c0010006
c0fffe06
c0010006
c0010006
c0010006
c0010006
6001000c
6001000c
6001000c
30000018
38000018
18000030
0c000060
060000c0
03800380
01f01f00
007ffc00
000fe000
ENDCHAR
STARTCHAR SquareIntersection2
ENCODING 174
SWIDTH 1255 0
DWIDTH 35 0
BBX 31 43 2 -12
BITMAP
fffffffe
fffffffe
c0000006
c0000006
c0000006
c0000006
c0000006
c0000006
c0000006
c0000006
c0000006
c0000006
c0000006
c0000006
c0000006
c0000006
c0000006
c0000006
c0000006
c0000006
c0000006
c0000006
c0000006
c0000006
c0000006
c0000006
c0000006
c0000006
c0000006
c0000006
c0000006
c0000006
c0000006
c0000006
c0000006
c0000006
c0000006
c0000006
c0000006
c0000006
c0000006
c0000006
c0000006
ENDCHAR
STARTCHAR SquareUnion2
ENCODING 175
SWIDTH 1255 0
DWIDTH 35 0
BBX 31 43 2 -12
BITMAP
c0000006
c0000006
c0000006
c0000006
c0000006
c0000006
c0000006
c0000006
c0000006
c0000006
c0000006
c0000006
c0000006
c0000006
c0000006
c0000006
c0000006
c0000006
c0000006
c0000006
c0000006
c0000006
c0000006
c0000006
c0000006
c0000006
c0000006
c0000006
c0000006
c0000006
c0000006
c0000006
c0000006
c0000006
c0000006
c0000006
c0000006
c0000006
c0000006
c0000006
c0000006
fffffffe
fffffffe
ENDCHAR
STARTCHAR DblLBracketBar1
ENCODING 176
SWIDTH 436 0
DWIDTH 12 0
BBX 8 24 2 -5
BITMAP
c3
c3
c3
c3
c3
c3
c3
c3
c3
c3
c3
c3
c3
c3
c3
c3
c3
c3
c3
c3
c3
c3
c3
c3
ENDCHAR
STARTCHAR DblLBracketBar2
ENCODING 177
SWIDTH 436 0
DWIDTH 12 0
BBX 8 35 2 -10
BITMAP
c3
c3
c3
c3
c3
c3
c3
c3
c3
c3
c3
c3
c3
c3
c3
c3
c3
c3
c3
c3
c3
c3
c3
c3
c3
c3
c3
c3
c3
c3
c3
c3
c3
c3
c3
ENDCHAR
STARTCHAR DblLBracketBar3
ENCODING 178
SWIDTH 436 0
DWIDTH 12 0
BBX 8 47 2 -16
BITMAP
c3
c3
c3
c3
c3
c3
c3
c3
c3
c3
c3
c3
c3
c3
c3
c3
c3
c3
c3
c3
c3
c3
c3
c3
c3
c3
c3
c3
c3
c3
c3
c3
c3
c3
c3
c3
c3
c3
c3
c3
c3
c3
c3
c3
c3
c3
c3
ENDCHAR
STARTCHAR DblLBracketBar4
ENCODING 179
SWIDTH 436 0
DWIDTH 12 0
BBX 8 58 2 -22
BITMAP
c3
c3
c3
c3
c3
c3
c3
c3
c3
c3
c3
c3
c3
c3
c3
c3
c3
c3
c3
c3
c3
c3
c3
c3
c3
c3
c3
c3
c3
c3
c3
c3
c3
c3
c3
c3
c3
c3
c3
c3
c3
c3
c3
c3
c3
c3
c3
c3
c3
c3
c3
c3
c3
c3
c3
c3
c3
c3
ENDCHAR
STARTCHAR DblRBracketBar1
ENCODING 180
SWIDTH 436 0
DWIDTH 12 0
BBX 8 24 2 -5
BITMAP
c3
c3
c3
c3
c3
c3
c3
c3
c3
c3
c3
c3
c3
c3
c3
c3
c3
c3
c3
c3
c3
c3
c3
c3
ENDCHAR
STARTCHAR DblRBracketBar2
ENCODING 181
SWIDTH 436 0
DWIDTH 12 0
BBX 8 35 2 -10
BITMAP
c3
c3
c3
c3
c3
c3
c3
c3
c3
c3
c3
c3
c3
c3
c3
c3
c3
c3
c3
c3
c3
c3
c3
c3
c3
c3
c3
c3
c3
c3
c3
c3
c3
c3
c3
ENDCHAR
STARTCHAR DblRBracketBar3
ENCODING 182
SWIDTH 436 0
DWIDTH 12 0
BBX 8 47 2 -16
BITMAP
c3
c3
c3
c3
c3
c3
c3
c3
c3
c3
c3
c3
c3
c3
c3
c3
c3
c3
c3
c3
c3
c3
c3
c3
c3
c3
c3
c3
c3
c3
c3
c3
c3
c3
c3
c3
c3
c3
c3
c3
c3
c3
c3
c3
c3
c3
c3
ENDCHAR
STARTCHAR DblRBracketBar4
ENCODING 183
SWIDTH 436 0
DWIDTH 12 0
BBX 8 58 2 -22
BITMAP
c3
c3
c3
c3
c3
c3
c3
c3
c3
c3
c3
c3
c3
c3
c3
c3
c3
c3
c3
c3
c3
c3
c3
c3
c3
c3
c3
c3
c3
c3
c3
c3
c3
c3
c3
c3
c3
c3
c3
c3
c3
c3
c3
c3
c3
c3
c3
c3
c3
c3
c3
c3
c3
c3
c3
c3
c3
c3
ENDCHAR
STARTCHAR ContourIntegral3
ENCODING 184
SWIDTH 927 0
DWIDTH 26 0
BBX 42 92 2 -32
BITMAP
00000000fc00
000000038f00
0000000e0780
0000001c07c0
0000001807c0
0000003803c0
000000700080
000000700000
000000e00000
000000e00000
000001e00000
000001e00000
000001c00000
000003c00000
000003c00000
000003c00000
000003c00000
000003800000
000007800000
000007800000
000007800000
000007800000
000007800000
000007800000
000007800000
00000f800000
00000f000000
00000f000000
00000f000000
00000f000000
00000f000000
00007fc00000
0003fff00000
000f8f3c0000
001c0f0f0000
00380f038000
00600f01c000
00c00f00e000
01801f006000
03801f003000
03001f003000
06001f001800
06001f001800
06001e001800
0c001e000c00
0c001e000c00
0c001e000c00
0c001e000c00
0c001e000c00
0c001e000c00
0c001e000c00
0c001e000c00
06001e001800
06001e001800
07003e003800
03003e003000
01803e007000
01c03c006000
00e03c00c000
00703c018000
00383c070000
001e3c0e0000
0007fcfc0000
0001ffe00000
00003e000000
00003c000000
00003c000000
000038000000
000038000000
000038000000
000038000000
000038000000
000038000000
000038000000
000078000000
000070000000
000070000000
000070000000
000070000000
000070000000
000060000000
000060000000
0000e0000000
0000c0000000
0000c0000000
e00180000000
f00180000000
f80300000000
f80600000000
780c00000000
3c1800000000
0fe000000000
ENDCHAR
STARTCHAR DblContInteg3
ENCODING 185
SWIDTH 1844 0
DWIDTH 52 0
BBX 68 92 2 -32
BITMAP
00000000fc00007f00
000000030f0001c3c0
0000000e07800301e0
0000001c07c00e01f0
0000003807c00e01f0
0000003803c01c00f0
000000700180380060
000000f00000380000
000000e00000780000
000000e00000700000
000001e00000f00000
000001c00000f00000
000003c00000e00000
000003c00001e00000
000003c00001e00000
000003c00001e00000
000007800001e00000
000007800001c00000
000007800003c00000
000007800003c00000
000007800003c00000
000007800003c00000
00000f800003c00000
00000f800003c00000
00000f800003c00000
00000f000007c00000
00000f000007c00000
00000f000007800000
00000f000007800000
00000f000007800000
00000f000007800000
00003fffffffc00000
0001fffffffff80000
0007cf000007be0000
000e1f000007870000
00381f00000783c000
00701f00000780e000
00601f000007806000
00c01f000007803000
01c01f00000f803800
01801f00000f801800
03001f00000f800c00
03001e00000f800c00
03001e00000f000c00
06001e00000f000600
06001e00000f000600
06001e00000f000600
06001e00000f000600
06001e00000f000600
06001e00000f000600
06001e00000f000600
06001e00000f000600
03003e00000f000c00
03003e00000f000c00
03003e00001f000c00
01803e00001f001800
01c03e00001f003800
00c03c00001e003000
00603c00001e006000
00703c00001e00e000
003c3c00001e03c000
000e3c00001e070000
0007fc00001e3e0000
0001fffffffff80000
00003fffffffc00000
00003800001e000000
00003800001e000000
00003800001e000000
00003800001c000000
00003800001c000000
00007800001c000000
00007800001c000000
00007000001c000000
00007000001c000000
00007000001c000000
00007000003c000000
000070000038000000
000070000038000000
000070000038000000
000060000038000000
0000e0000038000000
0000e0000030000000
0000e0000070000000
0000c0000070000000
0001c0000060000000
6001801800e0000000
f801803c00c0000000
f803003e0180000000
fc06003e0180000000
7c0c001e0300000000
3e18000f0c00000000
0fe00003f000000000
ENDCHAR
STARTCHAR CntrClckwContInteg3
ENCODING 186
SWIDTH 927 0
DWIDTH 26 0
BBX 44 92 2 -32
BITMAP
00000000fc00
000000030f00
0000000e0780
0000001c07c0
0000001807c0
0000003803c0
000000700080
000000700000
000000e00000
000000e00000
000001e00000
000001e00000
000001c00000
000003c00000
000003c00000
000003c00000
000003c00000
000003800000
000007800000
000007800000
000007800000
000007800000
000007800000
000007800000
000007800000
00000f800000
00000f000000
00000f000000
00000f000000
00000f000000
00000f000000
00007fc00000
0003fff00000
000f8f3c0000
001c0f0e0000
00380f038000
00600f018000
00c00f00c000
01801f006000
03801f003000
03001f003000
06001f001000
06001f001800
06001e001800
0c001e000800
0c001e000800
0c001e001c00
0c001e003e00
0c001e002f00
0c001e004d80
0c001e008cc0
0c001e010820
06001e021810
06003e001800
07003e001000
03003e003000
01803e006000
01c03c006000
00e03c00c000
00703c018000
00383c070000
001e3c1e0000
0007fcf80000
0001ffe00000
00003e000000
00003c000000
00003c000000
00003c000000
000038000000
000038000000
000038000000
000038000000
000038000000
000038000000
000078000000
000070000000
000070000000
000070000000
000070000000
000070000000
000060000000
000060000000
0000e0000000
0000c0000000
0000c0000000
e00180000000
f00180000000
f80300000000
f80600000000
780c00000000
3c1800000000
0fe000000000
ENDCHAR
STARTCHAR ClckwContInteg3
ENCODING 187
SWIDTH 927 0
DWIDTH 26 0
BBX 44 92 0 -32
BITMAP
000000003f00
00000001c3c0
0000000381e0
0000000701f0
0000000e01f0
0000001c00f0
0000001c0020
000000380000
000000780000
000000780000
000000700000
000000f00000
000000f00000
000000e00000
000001e00000
000001e00000
000001e00000
000001e00000
000001c00000
000003c00000
000003c00000
000003c00000
000003c00000
000003c00000
000003c00000
000003c00000
000003c00000
000007c00000
000007c00000
000007800000
000007800000
00001fe00000
0000fffc0000
0003c79f0000
000707838000
001c0781c000
003807807000
003007803000
006007801800
00e007801c00
00c00f800c00
01800f800600
01800f800600
01800f800600
03000f000300
03000f000300
07800f000300
0fc00f000300
0f600f000300
13200f000300
23100f000300
43080f000300
81840f000600
01800f000600
01c01f000e00
00c01f000c00
00e01f001c00
00701e003800
00301e007000
001c1e00e000
000e1e01c000
00079e078000
0001fe7e0000
00007ff80000
00001f000000
00001e000000
00001e000000
00001e000000
00001e000000
00001e000000
00001c000000
00001c000000
00001c000000
00001c000000
00001c000000
00001c000000
00001c000000
000018000000
000018000000
000018000000
000038000000
000030000000
000030000000
000030000000
000060000000
380060000000
3c00c0000000
3e00c0000000
3e0180000000
1e0300000000
0f0e00000000
03f000000000
ENDCHAR
STARTCHAR SquareContInteg3
ENCODING 188
SWIDTH 927 0
DWIDTH 26 0
BBX 42 92 2 -32
BITMAP
000000007c00
000000038700
000000060780
0000000c07c0
0000001c07c0
0000003803c0
000000780180
000000700000
000000f00000
000000e00000
000001e00000
000001e00000
000001e00000
000003c00000
000003c00000
000003c00000
000003c00000
000007c00000
000007800000
000007800000
000007800000
000007800000
000007800000
000007800000
00000f800000
00000f800000
00000f800000
00000f800000
00000f000000
00000f000000
00000f000000
00000f000000
07fffffff800
04000f000800
04000f000800
04000f000800
04000f000800
04000f000800
04001f000800
04001f000800
04001f000800
04001f000800
04001f000800
04001e000800
04001e000800
04001e000800
04001e000800
04001e000800
04001e000800
04001e000800
04001e000800
04001e000800
04001e000800
04001e000800
04003e000800
04003e000800
04003e000800
04003c000800
04003c000800
04003c000800
04003c000800
04003c000800
04003c000800
07fffffff800
00003c000000
00003c000000
00003c000000
00003c000000
000038000000
000038000000
000038000000
000038000000
000038000000
000038000000
000078000000
000070000000
000070000000
000070000000
000070000000
000070000000
000060000000
000060000000
0000e0000000
0000c0000000
0000c0000000
600180000000
f00180000000
f80300000000
f80600000000
780c00000000
3c3800000000
0fc000000000
ENDCHAR
STARTCHAR UnionPlus3
ENCODING 189
SWIDTH 2024 0
DWIDTH 57 0
BBX 50 63 3 -22
BITMAP
c00000000000c0
c00000000000c0
c00000000000c0
c00000000000c0
c00000000000c0
c00000000000c0
c00000000000c0
c00000000000c0
c00000000000c0
c00000000000c0
c00000000000c0
c00000000000c0
c00000000000c0
c00000000000c0
c00000000000c0
c00000000000c0
c00000000000c0
c00000000000c0
c00000000000c0
c00000000000c0
c00000000000c0
c00000000000c0
c00000000000c0
c00000000000c0
c00000c00000c0
c00000c00000c0
c00000c00000c0
c00000c00000c0
c00000c00000c0
c00000c00000c0
c00000c00000c0
c00000c00000c0
c00000c00000c0
c00000c00000c0
c00000c00000c0
c00000c00000c0
c00000c00000c0
c00000c00000c0
c03ffffffe00c0
c03ffffffe00c0
c00000c00000c0
c00000c00000c0
c00000c00000c0
600000c0000180
600000c0000180
600000c0000180
700000c0000180
300000c0000300
300000c0000300
180000c0000600
1c0000c0000e00
0c0000c0000c00
0e0000c0001c00
07000000003800
03800000007000
01c0000000e000
00e0000001c000
00780000078000
003e00000f0000
000f80007c0000
0003f003f00000
0000ffffc00000
00000ffc000000
ENDCHAR
STARTCHAR SquareIntersection3
ENCODING 190
SWIDTH 2024 0
DWIDTH 57 0
BBX 50 63 3 -22
BITMAP
ffffffffffffc0
ffffffffffffc0
c00000000000c0
c00000000000c0
c00000000000c0
c00000000000c0
c00000000000c0
c00000000000c0
c00000000000c0
c00000000000c0
c00000000000c0
c00000000000c0
c00000000000c0
c00000000000c0
c00000000000c0
c00000000000c0
c00000000000c0
c00000000000c0
c00000000000c0
c00000000000c0
c00000000000c0
c00000000000c0
c00000000000c0
c00000000000c0
c00000000000c0
c00000000000c0
c00000000000c0
c00000000000c0
c00000000000c0
c00000000000c0
c00000000000c0
c00000000000c0
c00000000000c0
c00000000000c0
c00000000000c0
c00000000000c0
c00000000000c0
c00000000000c0
c00000000000c0
c00000000000c0
c00000000000c0
c00000000000c0
c00000000000c0
c00000000000c0
c00000000000c0
c00000000000c0
c00000000000c0
c00000000000c0
c00000000000c0
c00000000000c0
c00000000000c0
c00000000000c0
c00000000000c0
c00000000000c0
c00000000000c0
c00000000000c0
c00000000000c0
c00000000000c0
c00000000000c0
c00000000000c0
c00000000000c0
c00000000000c0
c00000000000c0
ENDCHAR
STARTCHAR SquareUnion3
ENCODING 191
SWIDTH 1944 0
DWIDTH 54 0
BBX 50 63 3 -22
BITMAP
c00000000000c0
c00000000000c0
c00000000000c0
c00000000000c0
c00000000000c0
c00000000000c0
c00000000000c0
c00000000000c0
c00000000000c0
c00000000000c0
c00000000000c0
c00000000000c0
c00000000000c0
c00000000000c0
c00000000000c0
c00000000000c0
c00000000000c0
c00000000000c0
c00000000000c0
c00000000000c0
c00000000000c0
c00000000000c0
c00000000000c0
c00000000000c0
c00000000000c0
c00000000000c0
c00000000000c0
c00000000000c0
c00000000000c0
c00000000000c0
c00000000000c0
c00000000000c0
c00000000000c0
c00000000000c0
c00000000000c0
c00000000000c0
c00000000000c0
c00000000000c0
c00000000000c0
c00000000000c0
c00000000000c0
c00000000000c0
c00000000000c0
c00000000000c0
c00000000000c0
c00000000000c0
c00000000000c0
c00000000000c0
c00000000000c0
c00000000000c0
c00000000000c0
c00000000000c0
c00000000000c0
c00000000000c0
c00000000000c0
c00000000000c0
c00000000000c0
c00000000000c0
c00000000000c0
c00000000000c0
c00000000000c0
ffffffffffffc0
ffffffffffffc0
ENDCHAR
STARTCHAR DblBar1
ENCODING 192
SWIDTH 436 0
DWIDTH 12 0
BBX 8 24 2 -5
BITMAP
c3
c3
c3
c3
c3
c3
c3
c3
c3
c3
c3
c3
c3
c3
c3
c3
c3
c3
c3
c3
c3
c3
c3
c3
ENDCHAR
STARTCHAR DblBar2
ENCODING 193
SWIDTH 436 0
DWIDTH 12 0
BBX 8 35 2 -10
BITMAP
c3
c3
c3
c3
c3
c3
c3
c3
c3
c3
c3
c3
c3
c3
c3
c3
c3
c3
c3
c3
c3
c3
c3
c3
c3
c3
c3
c3
c3
c3
c3
c3
c3
c3
c3
ENDCHAR
STARTCHAR DblBar3
ENCODING 194
SWIDTH 436 0
DWIDTH 12 0
BBX 8 47 2 -16
BITMAP
c3
c3
c3
c3
c3
c3
c3
c3
c3
c3
c3
c3
c3
c3
c3
c3
c3
c3
c3
c3
c3
c3
c3
c3
c3
c3
c3
c3
c3
c3
c3
c3
c3
c3
c3
c3
c3
c3
c3
c3
c3
c3
c3
c3
c3
c3
c3
ENDCHAR
STARTCHAR DblBar4
ENCODING 195
SWIDTH 436 0
DWIDTH 12 0
BBX 8 58 2 -22
BITMAP
c3
c3
c3
c3
c3
c3
c3
c3
c3
c3
c3
c3
c3
c3
c3
c3
c3
c3
c3
c3
c3
c3
c3
c3
c3
c3
c3
c3
c3
c3
c3
c3
c3
c3
c3
c3
c3
c3
c3
c3
c3
c3
c3
c3
c3
c3
c3
c3
c3
c3
c3
c3
c3
c3
c3
c3
c3
c3
ENDCHAR
STARTCHAR BarExt
ENCODING 196
SWIDTH 232 0
DWIDTH 6 0
BBX 2 9 2 0
BITMAP
c0
c0
c0
c0
c0
c0
c0
c0
c0
ENDCHAR
STARTCHAR DblBarExt
ENCODING 197
SWIDTH 436 0
DWIDTH 12 0
BBX 8 9 2 0
BITMAP
c3
c3
c3
c3
c3
c3
c3
c3
c3
ENDCHAR
STARTCHAR OverCircle
ENCODING 198
SWIDTH 199 0
DWIDTH 6 0
BBX 6 6 0 0
BITMAP
78
cc
84
84
cc
78
ENDCHAR
STARTCHAR Hacek
ENCODING 199
SWIDTH 312 0
DWIDTH 9 0
BBX 8 6 0 0
BITMAP
81
42
66
3c
3c
18
ENDCHAR
STARTCHAR VertBar1
ENCODING 200
SWIDTH 232 0
DWIDTH 6 0
BBX 2 24 2 -5
BITMAP
c0
c0
c0
c0
c0
c0
c0
c0
c0
c0
c0
c0
c0
c0
c0
c0
c0
c0
c0
c0
c0
c0
c0
c0
ENDCHAR
STARTCHAR VertBar2
ENCODING 201
SWIDTH 232 0
DWIDTH 6 0
BBX 2 35 2 -10
BITMAP
c0
c0
c0
c0
c0
c0
c0
c0
c0
c0
c0
c0
c0
c0
c0
c0
c0
c0
c0
c0
c0
c0
c0
c0
c0
c0
c0
c0
c0
c0
c0
c0
c0
c0
c0
ENDCHAR
STARTCHAR Nbspace
ENCODING 202
SWIDTH 189 0
DWIDTH 5 0
BBX 0 0 0 0
BITMAP
ENDCHAR
STARTCHAR VertBar3
ENCODING 203
SWIDTH 232 0
DWIDTH 6 0
BBX 2 47 2 -16
BITMAP
c0
c0
c0
c0
c0
c0
c0
c0
c0
c0
c0
c0
c0
c0
c0
c0
c0
c0
c0
c0
c0
c0
c0
c0
c0
c0
c0
c0
c0
c0
c0
c0
c0
c0
c0
c0
c0
c0
c0
c0
c0
c0
c0
c0
c0
c0
c0
ENDCHAR
STARTCHAR VertBar4
ENCODING 204
SWIDTH 232 0
DWIDTH 6 0
BBX 2 58 2 -22
BITMAP
c0
c0
c0
c0
c0
c0
c0
c0
c0
c0
c0
c0
c0
c0
c0
c0
c0
c0
c0
c0
c0
c0
c0
c0
c0
c0
c0
c0
c0
c0
c0
c0
c0
c0
c0
c0
c0
c0
c0
c0
c0
c0
c0
c0
c0
c0
c0
c0
c0
c0
c0
c0
c0
c0
c0
c0
c0
c0
ENDCHAR
STARTCHAR FIntegral
ENCODING 205
SWIDTH 390 0
DWIDTH 11 0
BBX 17 36 1 -7
BITMAP
001f00
003380
006380
006080
006000
00e000
00c000
00c000
00c000
01c000
01c000
01c000
01c000
01c000
01ce00
01fc00
03e000
3fc000
19c000
01c000
01c000
018000
018000
018000
018000
018000
018000
018000
018000
010000
010000
010000
430000
e20000
e40000
780000
ENDCHAR
STARTCHAR FIntegral2
ENCODING 206
SWIDTH 640 0
DWIDTH 18 0
BBX 28 62 2 -18
BITMAP
00000f80
000038e0
000060f0
0000e0f0
0000c070
0001c000
00018000
00018000
00038000
00030000
00030000
00030000
00070000
00070000
00070000
00070000
00070000
00070000
00060000
00060000
000e0000
000e0000
000e0000
000e0e00
000e7f00
000ff000
001f8000
00fe0000
0fee0000
070e0000
040e0000
000e0000
000e0000
000e0000
000e0000
000e0000
000c0000
000c0000
000c0000
000c0000
000c0000
001c0000
001c0000
001c0000
001c0000
001c0000
001c0000
001c0000
00180000
00180000
00180000
00180000
00180000
00100000
00300000
00300000
00300000
e0200000
f0600000
f0c00000
79800000
1e000000
ENDCHAR
STARTCHAR FIntegral3
ENCODING 207
SWIDTH 927 0
DWIDTH 26 0
BBX 42 92 2 -32
BITMAP
00000001fc00
000000070f00
0000000c0780
0000001807c0
0000003807c0
0000007003c0
000000700180
000000e00000
000000e00000
000001c00000
000001c00000
000003c00000
000003c00000
000003800000
000007800000
000007800000
000007800000
000007800000
000007800000
00000f000000
00000f000000
00000f000000
00000f000000
00000f000000
00000f000000
00000f000000
00000f000000
00000f000000
00000f000000
00000f000000
00001e000000
00001e000000
00001e000000
00001e000000
00001e002000
00001e01f000
00001e0fe000
00001efe0000
00001ff00000
00003f800000
0001fe000000
000ffe000000
00ff1e000000
01f81e000000
01801e000000
00001e000000
00001c000000
00003c000000
00003c000000
00003c000000
00003c000000
00003c000000
00003c000000
00003c000000
00003c000000
00003c000000
00003c000000
00003c000000
00003c000000
00003c000000
00003c000000
000078000000
000078000000
000078000000
000078000000
000078000000
000078000000
000078000000
000078000000
000078000000
000078000000
000070000000
000070000000
000070000000
000070000000
000070000000
000070000000
000070000000
0000e0000000
0000e0000000
0000e0000000
0000e0000000
0000c0000000
0001c0000000
0001c0000000
e00180000000
f00300000000
f80300000000
f80600000000
780c00000000
3c3800000000
0fc000000000
ENDCHAR
STARTCHAR OverDoubleDot
ENCODING 208
SWIDTH 299 0
DWIDTH 8 0
BBX 8 3 0 1
BITMAP
e7
e7
e7
ENDCHAR
STARTCHAR OverTripleDot
ENCODING 209
SWIDTH 496 0
DWIDTH 14 0
BBX 14 3 0 1
BITMAP
e71c
e71c
e71c
ENDCHAR
STARTCHAR OverLVector
ENCODING 210
SWIDTH 400 0
DWIDTH 11 0
BBX 11 5 0 2
BITMAP
0800
1000
3000
6000
ffe0
ENDCHAR
STARTCHAR OverRVector
ENCODING 211
SWIDTH 400 0
DWIDTH 11 0
BBX 11 5 0 2
BITMAP
0200
0100
0180
00c0
ffe0
ENDCHAR
STARTCHAR OverLRVector
ENCODING 212
SWIDTH 556 0
DWIDTH 16 0
BBX 15 5 0 2
BITMAP
0820
1010
3018
600c
fffe
ENDCHAR
STARTCHAR OverLArrow
ENCODING 213
SWIDTH 380 0
DWIDTH 11 0
BBX 10 9 0 -2
BITMAP
1000
3000
6000
4000
ffc0
4000
6000
3000
1000
ENDCHAR
STARTCHAR OverArrowVectExt
ENCODING 214
SWIDTH 200 0
DWIDTH 6 0
BBX 6 1 0 2
BITMAP
fc
ENDCHAR
STARTCHAR OverRArrow
ENCODING 215
SWIDTH 380 0
DWIDTH 11 0
BBX 10 9 0 -2
BITMAP
0200
0300
0180
0080
ffc0
0080
0180
0300
0200
ENDCHAR
STARTCHAR OverLRArrow
ENCODING 216
SWIDTH 517 0
DWIDTH 14 0
BBX 14 9 0 -2
BITMAP
1020
3030
6018
4008
fffc
4008
6018
3030
1020
ENDCHAR
STARTCHAR Integral
ENCODING 217
SWIDTH 390 0
DWIDTH 11 0
BBX 17 35 1 -6
BITMAP
000f00
001380
002380
002000
006000
006000
006000
006000
00c000
00c000
00c000
00c000
00c000
00c000
00c000
00c000
01c000
01c000
01c000
01c000
01c000
01c000
01c000
01c000
01c000
01c000
01c000
01c000
018000
018000
018000
030000
e30000
e60000
7c0000
ENDCHAR
STARTCHAR Summation
ENCODING 218
SWIDTH 808 0
DWIDTH 23 0
BBX 19 25 1 -4
BITMAP
7fffc0
3801c0
1800c0
1c0040
0e0040
060040
070000
038000
018000
01c000
00e000
006000
007000
006000
00c000
008000
018000
030000
060020
0c0020
1c0020
180060
3000e0
7fffe0
ffffe0
ENDCHAR
STARTCHAR Product
ENCODING 219
SWIDTH 945 0
DWIDTH 26 0
BBX 21 25 3 -4
BITMAP
fffff8
3800e0
3800e0
3800e0
3800e0
3800e0
3800e0
3800e0
3800e0
3800e0
3800e0
3800e0
3800e0
3800e0
3800e0
3800e0
3800e0
3800e0
3800e0
3800e0
3800e0
3800e0
3800e0
3800f0
fe03f8
ENDCHAR
STARTCHAR Intersection
ENCODING 220
SWIDTH 853 0
DWIDTH 24 0
BBX 20 25 2 -4
BITMAP
800010
800010
800010
800010
800010
800010
800010
800010
800010
800010
800010
800010
800010
800010
800010
800010
800010
800010
c00030
400020
600060
3000c0
180180
0e0700
01f800
ENDCHAR
STARTCHAR Union
ENCODING 221
SWIDTH 853 0
DWIDTH 24 0
BBX 20 25 2 -4
BITMAP
01f800
0e0700
180180
3000c0
600060
400020
c00030
800010
800010
800010
800010
800010
800010
800010
800010
800010
800010
800010
800010
800010
800010
800010
800010
800010
800010
ENDCHAR
STARTCHAR LogicalOr
ENCODING 222
SWIDTH 611 0
DWIDTH 17 0
BBX 14 19 1 0
BITMAP
8004
c00c
4008
6018
6018
2010
3030
1030
1020
1860
0840
0840
0cc0
0480
0480
0780
0300
0300
0100
ENDCHAR
STARTCHAR LogicalAnd
ENCODING 223
SWIDTH 611 0
DWIDTH 17 0
BBX 14 19 1 0
BITMAP
0100
0300
0300
0780
0480
0480
0cc0
0840
0840
1860
1020
1030
3030
2010
6018
6018
4008
c00c
8004
ENDCHAR
STARTCHAR Integral1
ENCODING 224
SWIDTH 640 0
DWIDTH 18 0
BBX 28 62 2 -18
BITMAP
00000f80
000018e0
000030f0
000060f0
0000e070
0000e000
0001c000
0001c000
0001c000
0003c000
0003c000
00038000
00038000
00038000
00078000
00078000
00078000
00078000
00078000
00078000
00078000
00078000
00078000
00070000
00070000
00070000
00070000
00070000
000f0000
000f0000
000f0000
000f0000
000f0000
000f0000
000f0000
000f0000
000e0000
000e0000
000e0000
001e0000
001e0000
001e0000
001c0000
001c0000
001c0000
001c0000
001c0000
001c0000
001c0000
001c0000
00180000
00180000
00180000
00180000
00380000
00300000
00300000
e0200000
f0600000
f0c00000
79800000
1e000000
ENDCHAR
STARTCHAR Integral2
ENCODING 225
SWIDTH 927 0
DWIDTH 26 0
BBX 42 92 2 -32
BITMAP
00000001fc00
000000070f00
0000000e0780
0000001c07c0
0000003807c0
0000007003c0
000000700180
000000e00000
000000e00000
000001e00000
000001c00000
000003c00000
000003c00000
000003c00000
000003800000
000007800000
000007800000
000007800000
000007800000
00000f800000
00000f000000
00000f000000
00000f000000
00000f000000
00000f000000
00000f000000
00000f000000
00000f000000
00001f000000
00001f000000
00001f000000
00001f000000
00001f000000
00001e000000
00001e000000
00001e000000
00001e000000
00001e000000
00001e000000
00001e000000
00001e000000
00001e000000
00001e000000
00003e000000
00003e000000
00003e000000
00003e000000
00003e000000
00003e000000
00003c000000
00003c000000
00003c000000
00003c000000
00003c000000
00003c000000
00003c000000
00003c000000
00003c000000
00007c000000
00007c000000
00007c000000
000078000000
000078000000
000078000000
000078000000
000078000000
000078000000
000078000000
000078000000
000078000000
000078000000
000070000000
000070000000
000070000000
000070000000
000070000000
000070000000
000060000000
0000e0000000
0000e0000000
0000e0000000
0000c0000000
0000c0000000
0001c0000000
000180000000
e00180000000
f00300000000
f80300000000
f80600000000
780c00000000
3c3800000000
0fc000000000
ENDCHAR
STARTCHAR Sum1
ENCODING 226
SWIDTH 1323 0
DWIDTH 37 0
BBX 33 43 1 -12
BITMAP
3ffffffe00
1e00001e00
0f00000e00
0f00000600
0780000200
03c0000200
03c0000200
01e0000200
00f0000100
0070000000
0078000000
003c000000
001c000000
001e000000
000f000000
0007000000
0007800000
0003c00000
0001e00000
0000e00000
0000f00000
0000600000
0000c00000
0001800000
0003000000
0007000000
0006000000
000c000000
0018000000
0038000000
0030000000
0060000080
00c0000080
01c0000080
0380000080
0300000180
0600000180
0c00000380
1c00000780
1800000f80
3fffffff80
7fffffff80
ffffffff80
ENDCHAR
STARTCHAR Sum2
ENCODING 227
SWIDTH 1884 0
DWIDTH 53 0
BBX 49 64 1 -23
BITMAP
1ffffffffffc00
0ffffffffffc00
07800000007c00
07c00000003c00
03c00000001c00
01e00000000c00
01f00000000c00
00f80000000c00
00780000000400
003c0000000400
003e0000000400
001e0000000400
000f0000000200
000f8000000000
00078000000000
0003c000000000
0003e000000000
0001e000000000
0000f000000000
0000f800000000
00007800000000
00003c00000000
00001e00000000
00001e00000000
00000f00000000
00000780000000
000007c0000000
000003c0000000
000001e0000000
000001f0000000
000000f0000000
00000078000000
00000070000000
000000e0000000
000001c0000000
000001c0000000
00000380000000
00000700000000
00000e00000000
00001c00000000
00001c00000000
00003800000000
00007000000000
0000e000000000
0001e000000000
0001c000000000
00038000000000
00070000000000
000e0000000080
001e0000000080
001c0000000080
00380000000180
00700000000180
00e00000000180
01e00000000380
01c00000000380
03800000000380
07000000000780
0f000000000f80
1e000000001f80
1c000000003f80
3fffffffffff80
7fffffffffff80
ffffffffffff80
ENDCHAR
STARTCHAR Product1
ENCODING 228
SWIDTH 1355 0
DWIDTH 38 0
BBX 34 43 2 -12
BITMAP
ffffffffc0
3c00000e00
1c00000e00
1c00000e00
1c00000e00
1c00000e00
1c00000e00
1c00000e00
1c00000e00
1c00000e00
1c00000e00
1c00000e00
1c00000e00
1c00000e00
1c00000e00
1c00000e00
1c00000e00
1c00000e00
1c00000e00
1c00000e00
1c00000e00
1c00000e00
1c00000e00
1c00000e00
1c00000e00
1c00000e00
1c00000e00
1c00000e00
1c00000e00
1c00000e00
1c00000e00
1c00000e00
1c00000e00
1c00000e00
1c00000e00
1c00000e00
1c00000e00
1c00000e00
1c00000e00
1c00000e00
1c00000e00
3e00001f00
ff80007fc0
ENDCHAR
STARTCHAR Product2
ENCODING 229
SWIDTH 1877 0
DWIDTH 53 0
BBX 48 64 2 -23
BITMAP
ffffffffffff
1ffffffffff8
0f80000001f0
0f00000000f0
0f00000000f0
0f00000000f0
0f00000000f0
0f00000000f0
0f00000000f0
0f00000000f0
0f00000000f0
0f00000000f0
0f00000000f0
0f00000000f0
0f00000000f0
0f00000000f0
0f00000000f0
0f00000000f0
0f00000000f0
0f00000000f0
0f00000000f0
0f00000000f0
0f00000000f0
0f00000000f0
0f00000000f0
0f00000000f0
0f00000000f0
0f00000000f0
0f00000000f0
0f00000000f0
0f00000000f0
0f00000000f0
0f00000000f0
0f00000000f0
0f00000000f0
0f00000000f0
0f00000000f0
0f00000000f0
0f00000000f0
0f00000000f0
0f00000000f0
0f00000000f0
0f00000000f0
0f00000000f0
0f00000000f0
0f00000000f0
0f00000000f0
0f00000000f0
0f00000000f0
0f00000000f0
0f00000000f0
0f00000000f0
0f00000000f0
0f00000000f0
0f00000000f0
0f00000000f0
0f00000000f0
0f00000000f0
0f00000000f0
0f00000000f0
0f00000000f0
0f00000000f0
3fc0000003fc
fff000000fff
ENDCHAR
STARTCHAR Union1
ENCODING 230
SWIDTH 1255 0
DWIDTH 35 0
BBX 31 43 2 -12
BITMAP
c0000006
c0000006
c0000006
c0000006
c0000006
c0000006
c0000006
c0000006
c0000006
c0000006
c0000006
c0000006
c0000006
c0000006
c0000006
c0000006
c0000006
c0000006
c0000006
c0000006
c0000006
c0000006
c0000006
c0000006
c0000006
c0000006
c0000006
c0000006
c0000006
c0000006
c0000006
6000000c
6000000c
6000000c
30000018
38000038
18000030
0c000060
060000c0
03800380
01f01f00
007ffc00
000fe000
ENDCHAR
STARTCHAR Union2
ENCODING 231
SWIDTH 2024 0
DWIDTH 57 0
BBX 50 63 3 -22
BITMAP
c00000000000c0
c00000000000c0
c00000000000c0
c00000000000c0
c00000000000c0
c00000000000c0
c00000000000c0
c00000000000c0
c00000000000c0
c00000000000c0
c00000000000c0
c00000000000c0
c00000000000c0
c00000000000c0
c00000000000c0
c00000000000c0
c00000000000c0
c00000000000c0
c00000000000c0
c00000000000c0
c00000000000c0
c00000000000c0
c00000000000c0
c00000000000c0
c00000000000c0
c00000000000c0
c00000000000c0
c00000000000c0
c00000000000c0
c00000000000c0
c00000000000c0
c00000000000c0
c00000000000c0
c00000000000c0
c00000000000c0
c00000000000c0
c00000000000c0
c00000000000c0
c00000000000c0
c00000000000c0
c00000000000c0
c00000000000c0
c00000000000c0
c00000000000c0
60000000000180
60000000000180
60000000000180
30000000000300
30000000000300
38000000000700
18000000000600
1c000000000e00
0e000000001c00
07000000003800
03800000007000
01c0000000e000
00e0000001c000
00780000078000
003c00000f0000
000f80007c0000
0003f003f00000
0000ffffc00000
00000ffc000000
ENDCHAR
STARTCHAR Intersect1
ENCODING 232
SWIDTH 1255 0
DWIDTH 35 0
BBX 31 43 2 -12
BITMAP
000ff000
007ffe00
01f81f80
03c003c0
070000e0
0e000070
1c000038
3c00003c
3800001c
7000000e
7000000e
7000000e
e0000006
e0000006
e0000006
e0000006
e0000006
e0000006
e0000006
e0000006
e0000006
e0000006
e0000006
e0000006
e0000006
e0000006
e0000006
e0000006
e0000006
e0000006
e0000006
e0000006
e0000006
e0000006
e0000006
e0000006
e0000006
e0000006
e0000006
e0000006
e0000006
e0000006
e0000006
ENDCHAR
STARTCHAR Intersect2
ENCODING 233
SWIDTH 2024 0
DWIDTH 57 0
BBX 51 63 3 -22
BITMAP
00000ffe000000
0000ffffe00000
0003f803f80000
000fc0007e0000
003e00000f8000
007c000007c000
00f0000001e000
01e0000000f000
03c00000007800
07800000003c00
0f000000001e00
1e000000000f00
1c000000000700
3c000000000780
38000000000380
38000000000380
700000000001c0
700000000001c0
700000000001c0
e00000000000e0
e00000000000e0
e00000000000e0
e00000000000e0
e00000000000e0
e00000000000e0
e00000000000e0
e00000000000e0
e00000000000e0
e00000000000e0
e00000000000e0
e00000000000e0
e00000000000e0
e00000000000e0
e00000000000e0
e00000000000e0
e00000000000e0
e00000000000e0
e00000000000e0
e00000000000e0
e00000000000e0
e00000000000e0
e00000000000e0
e00000000000e0
e00000000000e0
e00000000000e0
e00000000000e0
e00000000000e0
e00000000000e0
e00000000000e0
e00000000000e0
e00000000000e0
e00000000000e0
e00000000000e0
e00000000000e0
e00000000000e0
e00000000000e0
e00000000000e0
e00000000000e0
e00000000000e0
e00000000000e0
e00000000000e0
e00000000000e0
e00000000000e0
ENDCHAR
STARTCHAR Or1
ENCODING 234
SWIDTH 782 0
DWIDTH 22 0
BBX 19 25 1 -4
BITMAP
c00060
c00060
6000c0
6000c0
6000c0
300180
300180
100100
180300
180300
080200
0c0600
0c0600
040400
060c00
020800
031800
031800
011000
01b000
01b000
00a000
00e000
004000
004000
ENDCHAR
STARTCHAR Or2
ENCODING 235
SWIDTH 1200 0
DWIDTH 34 0
BBX 31 44 1 -13
BITMAP
c0000006
e000000e
6000000c
6000000c
7000001c
30000018
30000018
38000038
18000030
18000030
1c000070
0c000060
0c000060
0e0000e0
060000c0
060000c0
070001c0
03000180
03000180
03800380
01800300
01800300
00c00600
00c00600
00c00600
00600c00
00600c00
00600c00
00301800
00301800
00301800
00183000
00183000
00183000
000c6000
000c6000
000c6000
0006c000
0006c000
0006c000
00038000
00038000
00038000
00010000
ENDCHAR
STARTCHAR And1
ENCODING 236
SWIDTH 782 0
DWIDTH 22 0
BBX 20 25 1 -4
BITMAP
006000
006000
00f000
00f000
01f800
01f800
019800
039c00
039c00
030c00
070e00
060600
0e0700
0e0700
0c0300
1c0380
1c0380
180180
3801c0
3801c0
7000e0
7000e0
7000e0
e00070
e00070
ENDCHAR
STARTCHAR And2
ENCODING 237
SWIDTH 1200 0
DWIDTH 34 0
BBX 32 43 1 -12
BITMAP
00018000
0003c000
0003c000
0003c000
0007e000
0007e000
0007e000
000e7000
000e7000
000e7000
001c3800
001c3800
001c3800
00381c00
00381c00
00781e00
00700e00
00700e00
00f00f00
00e00700
00e00700
01e00780
01c00380
01c00380
03c003c0
038001c0
038001c0
078001e0
070000e0
070000e0
0e000070
0e000070
1e000078
1c000038
1c000038
3c00003c
3800001c
3800001c
7800001e
7000000e
7000000e
f000000f
e0000007
ENDCHAR
STARTCHAR SmallVee
ENCODING 238
SWIDTH 660 0
DWIDTH 18 0
BBX 13 11 3 2
BITMAP
c018
4010
6030
2020
3060
18c0
0880
0d80
0500
0700
0200
ENDCHAR
STARTCHAR SmallWedge
ENCODING 239
SWIDTH 660 0
DWIDTH 18 0
BBX 14 11 3 2
BITMAP
0300
0780
0780
0fc0
0cc0
1ce0
3870
3030
7038
6018
e01c
ENDCHAR
STARTCHAR DoubleGrave
ENCODING 240
SWIDTH 364 0
DWIDTH 10 0
BBX 10 5 0 1
BITMAP
cc00
ee00
3300
1980
0cc0
ENDCHAR
STARTCHAR Breve
ENCODING 241
SWIDTH 282 0
DWIDTH 8 0
BBX 7 4 0 1
BITMAP
82
c6
7c
38
ENDCHAR
STARTCHAR DownBreve
ENCODING 242
SWIDTH 282 0
DWIDTH 8 0
BBX 7 5 0 0
BITMAP
38
7c
c6
82
82
ENDCHAR
STARTCHAR OverTilde
ENCODING 243
SWIDTH 331 0
DWIDTH 9 0
BBX 9 3 0 2
BITMAP
0080
7880
8f00
ENDCHAR
STARTCHAR Tilde2
ENCODING 244
SWIDTH 666 0
DWIDTH 19 0
BBX 18 2 0 2
BITMAP
3f80c0
c0ff00
ENDCHAR
STARTCHAR Tilde3
ENCODING 245
SWIDTH 1000 0
DWIDTH 28 0
BBX 28 4 0 1
BITMAP
0ff80010
3fff8060
601fffc0
8001ff00
ENDCHAR
STARTCHAR Tilde4
ENCODING 246
SWIDTH 1333 0
DWIDTH 37 0
BBX 37 4 0 1
BITMAP
03ff800008
1ffffe0030
6003ffffc0
80000ffe00
ENDCHAR
STARTCHAR BackQuote
ENCODING 247
SWIDTH 322 0
DWIDTH 9 0
BBX 5 8 2 13
BITMAP
18
38
38
70
60
40
c0
80
ENDCHAR
STARTCHAR DblBackQuote
ENCODING 248
SWIDTH 513 0
DWIDTH 14 0
BBX 10 8 2 13
BITMAP
18c0
39c0
39c0
7380
6300
c300
c600
8400
ENDCHAR
STARTCHAR Quote
ENCODING 249
SWIDTH 322 0
DWIDTH 9 0
BBX 5 8 2 13
BITMAP
c0
e0
e0
70
30
10
18
08
ENDCHAR
STARTCHAR DblQuote
ENCODING 250
SWIDTH 513 0
DWIDTH 14 0
BBX 10 8 2 13
BITMAP
c600
e700
e700
7380
3180
30c0
18c0
0840
ENDCHAR
STARTCHAR VertBar
ENCODING 251
SWIDTH 232 0
DWIDTH 6 0
BBX 2 19 2 0
BITMAP
c0
c0
c0
c0
c0
c0
c0
c0
c0
c0
c0
c0
c0
c0
c0
c0
c0
c0
c0
ENDCHAR
STARTCHAR DblVertBar
ENCODING 252
SWIDTH 436 0
DWIDTH 12 0
BBX 8 19 2 0
BITMAP
c3
c3
c3
c3
c3
c3
c3
c3
c3
c3
c3
c3
c3
c3
c3
c3
c3
c3
c3
ENDCHAR
STARTCHAR VertBarExten
ENCODING 253
SWIDTH 232 0
DWIDTH 6 0
BBX 2 13 2 0
BITMAP
c0
c0
c0
c0
c0
c0
c0
c0
c0
c0
c0
c0
c0
ENDCHAR
STARTCHAR DblVertBarExten
ENCODING 254
SWIDTH 436 0
DWIDTH 12 0
BBX 8 13 2 0
BITMAP
c3
c3
c3
c3
c3
c3
c3
c3
c3
c3
c3
c3
c3
ENDCHAR
STARTCHAR Coproduct
ENCODING 255
SWIDTH 727 0
DWIDTH 20 0
BBX 18 19 1 0
BITMAP
fe1fc0
3c0780
380700
380700
380700
380700
380700
380700
380700
380700
380700
380700
380700
380700
380700
380700
380700
380700
ffffc0
ENDCHAR
ENDFONT
